<?xml version="1.0" encoding="UTF-8" standalone="no"?>
<svg
   xmlns:dc="http://purl.org/dc/elements/1.1/"
   xmlns:cc="http://creativecommons.org/ns#"
   xmlns:rdf="http://www.w3.org/1999/02/22-rdf-syntax-ns#"
   xmlns:svg="http://www.w3.org/2000/svg"
   xmlns="http://www.w3.org/2000/svg"
   xmlns:sodipodi="http://sodipodi.sourceforge.net/DTD/sodipodi-0.dtd"
   xmlns:inkscape="http://www.inkscape.org/namespaces/inkscape"
   width="700"
   height="700"
   version="1.2"
   viewBox="0 0 525 525"
   id="svg44"
   sodipodi:docname="alpine-f1-logo.svg"
   inkscape:version="0.92.4 (5da689c313, 2019-01-14)"
   inkscape:export-filename="C:\Users\suitedoalex\sites\svg\alpine-f1-logo-0.png"
   inkscape:export-xdpi="561.73712"
   inkscape:export-ydpi="561.73712">
  <metadata
     id="metadata50">
    <rdf:RDF>
      <cc:Work
         rdf:about="">
        <dc:format>image/svg+xml</dc:format>
        <dc:type
           rdf:resource="http://purl.org/dc/dcmitype/StillImage" />
        <dc:title></dc:title>
      </cc:Work>
    </rdf:RDF>
  </metadata>
  <defs
     id="defs48" />
  <sodipodi:namedview
     pagecolor="#ffffff"
     bordercolor="#666666"
     borderopacity="1"
     objecttolerance="10"
     gridtolerance="10"
     guidetolerance="10"
     inkscape:pageopacity="0"
     inkscape:pageshadow="2"
     inkscape:window-width="1600"
     inkscape:window-height="837"
     id="namedview46"
     showgrid="false"
     inkscape:zoom="0.26696833"
     inkscape:cx="359.29546"
     inkscape:cy="327.41254"
     inkscape:window-x="-8"
     inkscape:window-y="-8"
     inkscape:window-maximized="1"
     inkscape:current-layer="g32" />
  <g
     transform="matrix(1.7725,0,0,1.7725,-1662.0975,-436.6422)"
     id="g42">
    <g
       id="g40">
      <g
         id="g32"
         style="fill:#02192b">
        <path
           d="m 1351.8462,403.45343 27.172,0.0195 29.094,-22.488 h 49.402 l -7.3281,22.488 h 21.977 l 7.2812,-22.488 h 24.766 l 18.422,-14.266 h -38.508 l 21.137,-64.918 h -22.004 l -83.902,64.918 h -33.168 l 9.1484,-28.098 -54.781,42.363 h 60.348 z m 122.29,-73.535 -11.961,36.801 h -35.613 z"
           id="path2"
           inkscape:connector-curvature="0"
           inkscape:export-xdpi="288.58383"
           inkscape:export-ydpi="288.58383" />
        <path
           d="m 1374.6262,465.32343 h 1.6875 v -5.2461 h 5.9453 v -1.5234 h -5.9453 v -3.5586 h 6.4844 v -1.5234 h -8.1719 z"
           id="path4"
           inkscape:connector-curvature="0"
           inkscape:export-xdpi="288.58383"
           inkscape:export-ydpi="288.58383" />
        <path
           d="m 1388.0162,454.92343 h 2.9609 v 10.398 h 1.6914 v -11.855 h -4.6523 z"
           id="path6"
           inkscape:connector-curvature="0"
           inkscape:export-xdpi="288.58383"
           inkscape:export-ydpi="288.58383" />
        <path
           d="m 1399.9562,453.11343 c -1.1914,0 -2.0547,0.78125 -2.0547,2.0547 0,1.2617 0.8633,2.0547 2.0547,2.0547 1.1797,0 2.0547,-0.79297 2.0547,-2.0547 0,-1.2734 -0.875,-2.0547 -2.0547,-2.0547 m 0,3.7461 c -0.9648,0 -1.6836,-0.63282 -1.6836,-1.6914 0,-1.0664 0.7188,-1.7031 1.6836,-1.7031 0.957,0 1.6641,0.63671 1.6641,1.7031 0,1.0586 -0.707,1.6914 -1.6641,1.6914"
           id="path8"
           inkscape:connector-curvature="0"
           inkscape:export-xdpi="288.58383"
           inkscape:export-ydpi="288.58383" />
        <path
           d="m 1400.8662,454.73343 c 0,-0.45312 -0.2969,-0.67968 -0.8711,-0.67968 h -0.8945 v 2.2305 h 0.4922 v -0.83204 h 0.3086 l 0.4726,0.83204 h 0.5352 l -0.5156,-0.91407 c 0.3086,-0.0937 0.4726,-0.30859 0.4726,-0.63672 m -0.8515,0.31641 h -0.4219 v -0.59375 h 0.4219 c 0.2343,0 0.3398,0.11328 0.3398,0.28516 0,0.19531 -0.1055,0.30859 -0.3398,0.30859"
           id="path10"
           inkscape:connector-curvature="0"
           inkscape:export-xdpi="288.58383"
           inkscape:export-ydpi="288.58383" />
        <path
           d="m 1411.9662,454.99343 h 4.0977 v 10.328 h 1.6875 v -10.328 h 4.0938 v -1.5273 h -9.8789 z"
           id="path12"
           inkscape:connector-curvature="0"
           inkscape:export-xdpi="288.58383"
           inkscape:export-ydpi="288.58383" />
        <path
           d="m 1427.4162,465.32343 h 8.1719 v -1.5273 h -6.4805 v -3.7188 h 5.9414 v -1.5234 h -5.9414 v -3.5586 h 6.4805 v -1.5234 h -8.1719 z"
           id="path14"
           inkscape:connector-curvature="0"
           inkscape:export-xdpi="288.58383"
           inkscape:export-ydpi="288.58383" />
        <path
           d="m 1444.7562,453.47343 -4.2227,11.852 h 1.7969 l 1.0781,-3.1094 h 5.1367 l 1.0742,3.1094 h 1.7969 l -4.2383,-11.852 z m -0.8086,7.2188 2.0274,-5.8555 2.0312,5.8555 z"
           id="path16"
           inkscape:connector-curvature="0"
           inkscape:export-xdpi="288.58383"
           inkscape:export-ydpi="288.58383" />
        <path
           d="m 1463.3462,464.04343 -3.375,-10.574 h -2.8945 v 11.852 h 1.6914 v -10.273 l 3.2852,10.273 h 2.5859 l 3.3203,-10.398 v 10.398 h 1.6914 v -11.852 h -2.9297 z"
           id="path18"
           inkscape:connector-curvature="0"
           inkscape:export-xdpi="288.58383"
           inkscape:export-ydpi="288.58383" />
        <path
           d="m 1320.5462,439.29343 h 5.5352 l 2.9258,-3.3008 h 15.879 l 2.9297,3.3008 h 5.5352 l -16.402,-17.914 z m 11.266,-6.4258 5.1367,-5.7812 5.1367,5.7812 z"
           id="path20"
           inkscape:connector-curvature="0"
           inkscape:export-xdpi="288.58383"
           inkscape:export-ydpi="288.58383" />
        <path
           d="m 1440.5862,421.93343 h -4.6875 v 17.367 h 4.6875 z"
           id="path22"
           inkscape:connector-curvature="0"
           inkscape:export-xdpi="288.58383"
           inkscape:export-ydpi="288.58383" />
        <path
           d="m 1479.6162,432.64343 -19.402,-10.719 h -4.7383 v 17.367 h 4.3438 v -12.828 l 24.188,13.324 v -17.863 h -4.3906 z"
           id="path24"
           inkscape:connector-curvature="0"
           inkscape:export-xdpi="288.58383"
           inkscape:export-ydpi="288.58383" />
        <path
           d="m 1368.1162,421.93343 h -4.6914 v 17.367 h 21.316 l 1.3125,-3.125 h -17.938 z"
           id="path26"
           inkscape:connector-curvature="0"
           inkscape:export-xdpi="288.58383"
           inkscape:export-ydpi="288.58383" />
        <path
           d="m 1503.5862,436.17343 v -4.1445 h 19.031 v -3.125 h -19.031 v -3.8477 h 19.031 v -3.125 h -23.719 v 17.367 h 23.469 l 0.8711,-3.125 z"
           id="path28"
           inkscape:connector-curvature="0"
           inkscape:export-xdpi="288.58383"
           inkscape:export-ydpi="288.58383" />
        <path
           d="m 1415.9762,421.93343 h -20.07 v 17.367 h 4.6875 v -5.8047 h 15.16 c 5.6328,0 7.8164,-2.3594 7.8164,-5.8555 0,-3.375 -2.3828,-5.707 -7.5938,-5.707 m -1.1172,8.4336 h -14.266 v -5.3086 h 14.242 c 2.8281,0 3.6953,0.86719 3.6953,2.707 0,1.6094 -1.2148,2.6016 -3.6719,2.6016"
           id="path30"
           inkscape:connector-curvature="0"
           inkscape:export-xdpi="288.58383"
           inkscape:export-ydpi="288.58383" />
        <path
           style="fill:#02192b;stroke-width:1.11764896"
           d="m 1007.8566,451.23348 30.3688,0.0218 32.5169,-25.13369 h 55.2141 l -8.1903,25.13369 h 24.5626 l 8.1378,-25.13369 h 27.6797 l 20.5893,-15.94438 h -43.0384 l 23.6238,-72.55554 h -24.5928 l -93.773,72.55554 h -37.0702 l 10.2247,-31.4037 -61.22591,47.34696 h 67.44791 z m 136.6773,-82.18632 -13.3682,41.13059 h -39.8028 z"
           id="path2-1"
           inkscape:connector-curvature="0"
           inkscape:export-xdpi="258.9913"
           inkscape:export-ydpi="258.9913" />
        <path
           style="fill:#02192b;stroke-width:1.46134984"
           d="m 937.70753,599.9252 h 8.08886 l 4.27562,-4.82362 h 23.20478 l 4.28131,4.82362 h 8.08887 l -23.96906,-26.17862 z m 16.46357,-9.39034 7.50651,-8.44836 7.50652,8.44836 z"
           id="path20-3"
           inkscape:connector-curvature="0"
           inkscape:export-xdpi="197.47748"
           inkscape:export-ydpi="197.47748" />
        <path
           style="fill:#02192b;stroke-width:1.46134984"
           d="m 1113.1281,574.55617 h -6.8501 v 25.37926 h 6.8501 z"
           id="path22-6"
           inkscape:connector-curvature="0"
           inkscape:export-xdpi="197.47748"
           inkscape:export-ydpi="197.47748" />
        <path
           style="fill:#02192b;stroke-width:1.46134984"
           d="m 1170.1645,590.20723 -28.3531,-15.66421 h -6.9243 v 25.37926 h 6.3478 v -18.7462 l 35.3472,19.47103 v -26.10409 h -6.4162 z"
           id="path24-5"
           inkscape:connector-curvature="0"
           inkscape:export-xdpi="197.47748"
           inkscape:export-ydpi="197.47748" />
        <path
           style="fill:#02192b;stroke-width:1.46134984"
           d="m 1007.224,574.55617 h -6.8558 v 25.37926 h 31.1502 l 1.918,-4.56672 h -26.2137 z"
           id="path26-8"
           inkscape:connector-curvature="0"
           inkscape:export-xdpi="197.47748"
           inkscape:export-ydpi="197.47748" />
        <path
           style="fill:#02192b;stroke-width:1.46134984"
           d="m 1205.1931,595.36579 v -6.05656 h 27.8109 v -4.56672 h -27.8109 v -5.62284 h 27.8109 v -4.56672 h -34.6617 v 25.37927 h 34.2964 l 1.273,-4.56672 z"
           id="path28-4"
           inkscape:connector-curvature="0"
           inkscape:export-xdpi="197.47748"
           inkscape:export-ydpi="197.47748" />
        <path
           style="fill:#02192b;stroke-width:1.46134984"
           d="m 1077.1642,574.55617 h -29.3293 v 25.37926 h 6.8501 v -8.4827 h 22.1541 c 8.2315,0 11.4225,-3.44791 11.4225,-8.55693 0,-4.93206 -3.4821,-8.33992 -11.0972,-8.33992 m -1.6326,12.32444 h -20.8477 v -7.75773 h 20.8126 c 4.1328,0 5.4001,1.26727 5.4001,3.95588 0,2.35189 -1.7752,3.80185 -5.3659,3.80185"
           id="path30-8"
           inkscape:connector-curvature="0"
           inkscape:export-xdpi="197.47748"
           inkscape:export-ydpi="197.47748" />
      </g>
      <path
         d="m 1406.9762,484.10343 -3.7617,2.9726 h 13.598 l 3.7617,-2.9726 z"
         id="path34"
         inkscape:connector-curvature="0"
         style="fill:#2173b8"
         inkscape:export-xdpi="288.58383"
         inkscape:export-ydpi="288.58383" />
      <path
         d="m 1420.5762,484.10343 -3.7617,2.9726 h 6.3438 l 3.7617,-2.9726 z"
         id="path36"
         inkscape:connector-curvature="0"
         style="fill:#fffffd"
         inkscape:export-xdpi="288.58383"
         inkscape:export-ydpi="288.58383" />
      <path
         d="m 1426.9262,484.10343 -3.7617,2.9726 h 13.648 l 3.7617,-2.9726 z"
         id="path38"
         inkscape:connector-curvature="0"
         style="fill:#e12319"
         inkscape:export-xdpi="288.58383"
         inkscape:export-ydpi="288.58383" />
    </g>
  </g>
</svg>
