<?xml version="1.0" encoding="UTF-8"?>
<svg version="1.1" xmlns="http://www.w3.org/2000/svg" width="806" height="309">
<path d="M0 0 C1.32125518 0.24321005 1.32125518 0.24321005 2.66920239 0.49133343 C8.51308758 1.31733544 14.40330901 1.14345037 20.2927618 1.1386652 C21.65844178 1.14111451 23.02412103 1.14399894 24.38979927 1.14727798 C28.14902752 1.15504095 31.90823695 1.1566195 35.66747223 1.1572054 C39.75470917 1.15893518 43.84193618 1.16642096 47.92916733 1.17318195 C55.09453258 1.18423952 62.25989431 1.19161095 69.42526627 1.19658089 C80.0799364 1.20398766 90.73459425 1.21707099 101.38925715 1.23132664 C119.31152303 1.25514491 137.23379108 1.27434584 155.15606499 1.29092598 C172.90438575 1.30736024 190.65270243 1.32584016 208.40101814 1.34705925 C209.504069 1.34837686 210.60711986 1.34969446 211.7435965 1.351052 C217.34530958 1.35775397 222.94702261 1.36449257 228.54873563 1.37124526 C268.23780873 1.41902331 307.92688564 1.46220403 347.6159668 1.50268555 C386.17619097 1.54202618 424.73641198 1.58344646 463.29663086 1.62768555 C465.07915259 1.62972934 465.07915259 1.62972934 466.89768487 1.63181442 C478.83143391 1.64549966 490.76518291 1.65922721 502.69893187 1.67298577 C527.0099047 1.7010132 551.32087785 1.72875818 575.6318512 1.7563324 C576.74965935 1.7576006 577.8674675 1.7588688 579.01914863 1.76017542 C653.6794273 1.84484818 728.33971314 1.92293644 803 2 C801.09549175 5.88115445 799.16016079 9.35453865 796.5625 12.8125 C792.95500901 17.6846096 789.42793508 22.60581056 785.9375 27.5625 C785.41921631 28.29758789 784.90093262 29.03267578 784.36694336 29.79003906 C781.12561937 34.39089404 777.89745955 39.00066639 774.6953125 43.62890625 C773.21986765 45.69248926 771.71084743 47.72084956 770.18359375 49.74609375 C767.02476635 53.94434347 763.96703872 58.20782772 760.9375 62.5 C760.43412109 63.20769531 759.93074219 63.91539063 759.41210938 64.64453125 C757.92358696 66.75118523 756.46162591 68.87463336 755 71 C754.30898193 71.94891113 754.30898193 71.94891113 753.60400391 72.91699219 C749.82642252 78.39105866 748.63136434 83.75713141 747.5 90.25 C747.19654663 91.87180176 747.19654663 91.87180176 746.88696289 93.52636719 C746.23961452 97.01450887 745.61787697 100.50652646 745 104 C744.57210602 106.37508859 744.14371947 108.75008849 743.71484375 111.125 C742.86383607 115.85919627 742.0228192 120.59504371 741.1875 125.33203125 C739.70039477 133.73297652 738.10079819 142.11104248 736.48388672 150.48779297 C735.8181099 153.94432347 735.15994672 157.40228581 734.50219727 160.86035156 C734.16861716 162.61371474 733.83447415 164.36697093 733.49975586 166.12011719 C732.65793142 170.5303396 731.82281849 174.94165826 731 179.35546875 C722.23472891 226.22336042 722.23472891 226.22336042 707.69921875 237.33203125 C699.88592767 242.16021546 691.95358975 245.18329016 683.125 247.625 C682.12597656 247.91117188 681.12695312 248.19734375 680.09765625 248.4921875 C671.44323186 250.94892733 662.74537855 253.39747218 653.875 254.9375 C643.79172589 256.6885751 633.779991 258.99503985 623.875 261.5625 C618.9868189 262.80604269 614.07926237 263.76706028 609.11669922 264.66430664 C601.88578018 265.98699497 594.69544296 267.49788096 587.5 269 C578.7281867 270.82803814 569.95828063 272.60887115 561.14453125 274.22265625 C552.49806022 275.82287899 543.88562601 277.60899427 535.26538086 279.34375 C531.72945891 280.05437117 528.19291399 280.76183141 524.65625 281.46875 C519.61531699 282.47635678 514.57497047 283.4868125 509.53515625 284.5 C475.54649824 291.32770909 475.54649824 291.32770909 465.23046875 292.859375 C459.82530832 293.68232737 454.4564456 294.63643432 449.0859375 295.65625 C448.29850662 295.80515686 447.51107574 295.95406372 446.69978333 296.10748291 C443.4504682 296.72305515 440.20149804 297.34010256 436.95458984 297.96826172 C403.61945959 304.40040975 403.61945959 304.40040975 389.0625 301.4375 C388.03382813 301.25131104 387.00515625 301.06512207 385.9453125 300.87329102 C383.76117495 300.47589204 381.57902009 300.06745014 379.39892578 299.6484375 C375.86339001 298.97393793 372.32237863 298.34130197 368.77734375 297.71875 C363.97564062 296.8751554 359.17614918 296.0209542 354.37890625 295.15234375 C350.04984131 294.36862827 345.71934042 293.59524009 341.38525391 292.83984375 C321.41748569 289.35587116 301.51314283 285.54400911 281.62030029 281.65823364 C279.41085166 281.22671915 277.2012617 280.79592751 274.99151611 280.36593628 C262.77208834 277.98608906 250.58240834 275.51044892 238.42382812 272.83641052 C229.30351769 270.83382685 220.15739593 268.96909736 211.00497437 267.11981201 C194.74035381 263.82959323 178.50968502 260.43724527 162.33007812 256.74902344 C159.27358446 256.06153645 156.21359404 255.39228315 153.15144348 254.73049927 C98.82432921 242.98653185 98.82432921 242.98653185 87.78173828 226.14160156 C84.2154461 220.18310517 82.43480597 214.23179417 80.875 207.5 C80.61912109 206.43394531 80.36324219 205.36789063 80.09960938 204.26953125 C78.43216007 197.19886388 77.00888207 190.1258613 75.8359375 182.95703125 C74.83451573 176.87697053 73.6666275 170.82757437 72.52001953 164.77362061 C70.44563968 153.81870265 68.42889216 142.85665864 66.5 131.875 C64.51079862 120.55398411 62.29885078 109.28734657 59.96679688 98.03271484 C58.94159106 93.02766005 57.95241781 88.15596473 57.60546875 83.0546875 C57.17820871 78.66744406 55.27255066 75.70438516 52.5625 72.3125 C51.65437206 71.11241471 50.74683797 69.91187986 49.83984375 68.7109375 C49.37175293 68.1034668 48.90366211 67.49599609 48.42138672 66.87011719 C46.07529813 63.78337061 43.85788469 60.60655164 41.625 57.4375 C39.45344337 54.36700986 37.2694528 51.332058 34.8984375 48.41015625 C33.02473796 46.03140601 31.53585204 43.60568037 30 41 C28.16766753 38.3829427 26.29951099 35.7945628 24.42578125 33.20703125 C23 31 23 31 23 29 C22.34 29 21.68 29 21 29 C19.53540039 27.13574219 19.53540039 27.13574219 17.84765625 24.546875 C17.23599609 23.61746094 16.62433594 22.68804688 15.99414062 21.73046875 C15.35669922 20.74691406 14.71925781 19.76335938 14.0625 18.75 C12.80431146 16.82751862 11.54522916 14.90562181 10.28515625 12.984375 C9.72707275 12.12553711 9.16898926 11.26669922 8.59399414 10.38183594 C7.03672623 7.99257717 7.03672623 7.99257717 5.29467773 5.81347656 C4 4 4 4 4 2 C2.68 2 1.36 2 0 2 C0 1.34 0 0.68 0 0 Z M49 17 C50.4725085 20.68127126 51.41417404 22.84421914 53.65234375 25.86328125 C54.43738281 26.93340454 54.43738281 26.93340454 55.23828125 28.02514648 C55.79902344 28.77997314 56.35976563 29.5347998 56.9375 30.3125 C58.12513767 31.93384219 59.31131113 33.55625783 60.49609375 35.1796875 C61.38530518 36.39736816 61.38530518 36.39736816 62.29248047 37.63964844 C66.1456383 42.96597528 69.82489428 48.41175015 73.52294922 53.84619141 C75.16827538 56.2453761 76.83503907 58.62885403 78.50390625 61.01171875 C79.09558594 61.86193604 79.68726562 62.71215332 80.296875 63.58813477 C81.4462895 65.23962344 82.60097849 66.88745769 83.76171875 68.53100586 C84.54675781 69.66421265 84.54675781 69.66421265 85.34765625 70.8203125 C85.81179932 71.48305176 86.27594238 72.14579102 86.75415039 72.82861328 C89.80333705 78.14302954 90.63056113 83.96999392 91.5859375 89.9296875 C91.72754303 90.78781036 91.86914856 91.64593323 92.01504517 92.53005981 C92.47290733 95.31098257 92.92396197 98.09296308 93.375 100.875 C93.69222042 102.80867386 94.00993127 104.74226732 94.328125 106.67578125 C94.94992676 110.4576299 95.56940451 114.23984537 96.18652344 118.02246094 C97.25449559 124.56520529 98.34650112 131.10385051 99.44311523 137.6418457 C100.37108044 143.18877831 101.28360813 148.73801671 102.1849823 154.2893219 C106.04808689 178.49646171 106.04808689 178.49646171 110.6875 202.5625 C110.86531006 203.42174072 111.04312012 204.28098145 111.22631836 205.16625977 C113.29659246 214.44709183 116.75233907 222.63667454 124 229 C130.95703561 232.92790226 138.35900768 235.163107 146.09375 236.97265625 C147.64044373 237.34657249 147.64044373 237.34657249 149.21838379 237.7280426 C160.92968159 240.52466242 172.71151322 242.99170014 184.5 245.4375 C189.08898201 246.39633867 193.67732055 247.35823744 198.265625 248.3203125 C199.37774353 248.55307388 200.48986206 248.78583527 201.63568115 249.02565002 C210.52218231 250.88919326 219.38795414 252.83662549 228.25 254.8125 C239.6019996 257.32799991 250.99217256 259.55775876 262.42700195 261.65917969 C273.45224874 263.68741661 284.44696483 265.85430069 295.4375 268.0625 C296.29281311 268.23412659 297.14812622 268.40575317 298.02935791 268.58258057 C306.17639528 270.21771789 314.321697 271.86121556 322.46484375 273.515625 C323.56707275 273.73855225 324.66930176 273.96147949 325.80493164 274.19116211 C327.72525798 274.57980867 329.64510197 274.97085506 331.56420898 275.36547852 C337.91683216 276.65047193 344.29436442 277.73467136 350.688797 278.78604126 C356.60298184 279.76013693 362.50741677 280.78318978 368.41015625 281.82421875 C371.06687005 282.28910081 373.72372597 282.75316291 376.38061523 283.21704102 C378.18508641 283.53358321 379.98911825 283.85263907 381.79272461 284.17407227 C384.45567736 284.64788432 387.12018674 285.11190297 389.78515625 285.57421875 C390.57906265 285.71792404 391.37296906 285.86162933 392.19093323 286.00968933 C401.8204912 287.65821102 410.39783289 286.81783142 419.984375 285.12890625 C421.13692276 284.93141785 422.28947052 284.73392944 423.47694397 284.53045654 C427.23616665 283.88301191 430.99313331 283.22346852 434.75 282.5625 C436.71090175 282.22125073 438.67180368 281.88000249 440.63273716 281.53893566 C461.58549358 277.8884814 482.44334277 273.82786772 503.27833557 269.56062317 C512.43799229 267.69218667 521.62339762 265.96657504 530.8125 264.25 C544.57969291 261.67149169 558.30541434 258.94191869 572 256 C574.11588173 255.5468578 576.2317673 255.09373348 578.34765625 254.640625 C581.76555159 253.90827234 585.18322847 253.17495848 588.6003418 252.43896484 C595.4529268 250.96508094 602.30957447 249.51379201 609.171875 248.0859375 C624.41448117 244.91171585 639.64420721 241.70223333 654.8125 238.1875 C656.02083496 237.9097876 657.22916992 237.6320752 658.47412109 237.34594727 C676.49453745 233.32867157 676.49453745 233.32867157 689.8125 221.25 C695.12831319 210.16756261 696.98527908 197.50541405 698.83177185 185.47172546 C699.66003745 180.0894197 700.55715322 174.72674652 701.54296875 169.37109375 C701.67431717 168.65617264 701.80566559 167.94125153 701.94099426 167.20466614 C702.21412757 165.72074414 702.48759653 164.23688389 702.76138306 162.75308228 C706.43272359 142.80247672 709.66267182 122.78694041 712.82473755 102.75015259 C713.13750307 100.7713227 713.45157045 98.79269806 713.76705933 96.81430054 C714.38930478 92.90855905 714.99930844 89.00489596 715.55249023 85.08862305 C716.33859883 79.68697543 717.1196247 75.67801314 720.4375 71.1875 C721.49324219 69.72183594 721.49324219 69.72183594 722.5703125 68.2265625 C723.37974852 67.15069557 724.1896775 66.07519941 725 65 C725.95762135 63.6967007 726.9132622 62.39194448 727.8671875 61.0859375 C729.31389632 59.10563986 730.76339787 57.12829365 732.23022461 55.1628418 C734.68607802 51.86515892 736.92143916 48.5538612 739 45 C739.9632974 43.57249521 740.94348638 42.15628899 741.9375 40.75 C742.535625 39.90050781 743.13375 39.05101563 743.75 38.17578125 C745.53912225 35.65050973 747.33141259 33.12756664 749.125 30.60546875 C749.670354 29.83686523 750.21570801 29.06826172 750.77758789 28.27636719 C751.87880473 26.72471881 752.9821387 25.17457068 754.08764648 23.62597656 C754.59368408 22.91280273 755.09972168 22.19962891 755.62109375 21.46484375 C756.30836548 20.49985962 756.30836548 20.49985962 757.00952148 19.51538086 C758.09118582 18.16221816 758.09118582 18.16221816 758 17 C524.03 17 290.06 17 49 17 Z " fill="#111111" transform="translate(3,5)"/>
<path d="M0 0 C1.95650561 0.00138269 1.95650561 0.00138269 3.95253658 0.00279331 C5.03800137 0.00151167 5.03800137 0.00151167 6.14539474 0.00020415 C8.58837104 -0.00145279 11.03127979 0.00407418 13.47424984 0.00952244 C15.21821752 0.00980429 16.96218531 0.00964662 18.70615292 0.00907993 C23.45595252 0.00879188 28.2057271 0.01468986 32.95552087 0.02165389 C37.91366179 0.02788614 42.87180323 0.02849112 47.82994747 0.0296793 C57.22577585 0.032793 66.62159266 0.0410069 76.01741594 0.05102879 C86.71130907 0.06218873 97.40520274 0.06770008 108.09910023 0.07272422 C130.10363248 0.08318948 152.1081543 0.10078967 174.11267757 0.12304783 C175.33814913 4.26451214 174.70577259 7.71449096 173.93299007 11.88867283 C173.80077053 12.64090122 173.66855099 13.39312962 173.53232479 14.16815281 C173.10849913 16.57123156 172.67355169 18.97212799 172.23767757 21.37304783 C171.81110484 23.76001939 171.38688667 26.1473886 170.9644537 28.53509617 C170.70132741 30.01823627 170.43549217 31.50089939 170.16641903 32.98297215 C169.53373779 36.50988189 168.99170421 40.0184211 168.58484554 43.57910252 C168.11267757 47.12304783 168.11267757 47.12304783 167.11267757 48.12304783 C164.91042303 48.22004843 162.70499093 48.24491492 160.50060177 48.24330235 C159.80145989 48.24415677 159.10231801 48.24501119 158.38199002 48.24589151 C156.02193007 48.24754834 153.66194004 48.24202167 151.30188656 48.23657322 C149.61703143 48.23629137 147.93217618 48.23644905 146.24732113 48.23701572 C141.65867305 48.23730377 137.07005087 48.23140594 132.48140883 48.22444177 C127.69143125 48.21820936 122.90145314 48.21760452 118.11147213 48.21641636 C109.03438726 48.21330271 99.95731436 48.20508887 90.88023478 48.19506687 C80.54909176 48.18390678 70.21794819 48.17839555 59.88680065 48.17337143 C38.62875292 48.16290628 17.370716 48.14530619 -3.88732243 48.12304783 C-3.91259188 41.44784442 -3.9301551 34.77265326 -3.94225407 28.09741306 C-3.94729568 25.82462192 -3.9541288 23.55183403 -3.96276188 21.27905369 C-3.97483503 18.02001232 -3.9805523 14.76101366 -3.98497868 11.50195408 C-3.99013996 10.47904774 -3.99530125 9.4561414 -4.00061893 8.40223789 C-4.00069447 7.46133808 -4.00077 6.52043827 -4.00084782 5.55102634 C-4.00306843 4.718297 -4.00528904 3.88556767 -4.00757694 3.0276041 C-3.80880604 -0.12047197 -3.19574182 0.13619161 0 0 Z " fill="#0D0D0D" transform="translate(532.8873224258423,95.87695217132568)"/>
<path d="M0 0 C56.1 0 112.2 0 170 0 C170 15.51 170 31.02 170 47 C165.91017942 47.81796412 162.69242746 48.1256062 158.57920837 48.12698364 C157.28233597 48.12980347 155.98546356 48.13262329 154.64929199 48.13552856 C153.21923814 48.13358443 151.78918443 48.13153627 150.35913086 48.12939453 C148.84766091 48.13075009 147.33619129 48.13253089 145.82472229 48.13470459 C141.72569872 48.13926014 137.62670035 48.13749717 133.52767634 48.1343255 C129.23740875 48.13179268 124.94714329 48.13414197 120.65687561 48.13571167 C113.45345676 48.13753047 106.25004816 48.13513443 99.04663086 48.13037109 C90.71746784 48.12492697 82.38832928 48.12669339 74.05916685 48.1321975 C66.90746823 48.1367344 59.75577699 48.1373764 52.6040774 48.13475883 C48.33280286 48.13319951 44.06153983 48.13299292 39.79026604 48.13629532 C35.77576106 48.13918246 31.76128768 48.13718277 27.74678612 48.13140106 C26.27297264 48.13007809 24.79915651 48.13045975 23.32534409 48.13266373 C21.31483301 48.13539327 19.30431614 48.13136467 17.29380798 48.12698364 C16.16834029 48.12660662 15.0428726 48.12622959 13.88329983 48.12584114 C11.40669949 48.01775033 9.35847765 47.7223292 7 47 C6.15182265 42.71962714 5.31636862 38.43700127 4.49145508 34.15209961 C4.21056269 32.70191474 3.92650248 31.25233902 3.63891602 29.8034668 C3.22047608 27.69221379 2.81440164 25.57885544 2.41015625 23.46484375 C2.16402588 22.202771 1.91789551 20.94069824 1.66430664 19.64038086 C0.7332158 13.13643244 0.43704699 6.55570478 0 0 Z " fill="#0D0D0D" transform="translate(114,150)"/>
<path d="M0 0 C14.30767353 -0.02334009 28.61534412 -0.04091821 42.92303276 -0.05181217 C49.56604547 -0.05703966 56.20904542 -0.0641349 62.85205078 -0.07543945 C69.25811006 -0.08627306 75.66415704 -0.09227785 82.07022476 -0.09487724 C84.51914794 -0.09673063 86.96807041 -0.1003496 89.41698837 -0.10573006 C92.83643825 -0.11294674 96.25583675 -0.11399067 99.67529297 -0.11352539 C101.207379 -0.1189183 101.207379 -0.1189183 102.77041626 -0.12442017 C104.16287567 -0.12235817 104.16287567 -0.12235817 105.58346558 -0.12025452 C106.79746694 -0.12163721 106.79746694 -0.12163721 108.03599358 -0.12304783 C110 0 110 0 112 1 C112 26.74 112 52.48 112 79 C97.83053568 77.91004121 97.83053568 77.91004121 92.06152344 76.49072266 C88.61791887 75.67101101 85.1246508 75.20319308 81.625 74.6875 C70.13161893 72.93222741 58.71933448 70.7585418 47.29345703 68.61425781 C42.40739037 67.70296473 37.51628592 66.82025729 32.625 65.9375 C25.14271256 64.5793381 17.6624591 63.21046907 10.1875 61.8125 C9.27887207 61.64548584 8.37024414 61.47847168 7.43408203 61.30639648 C6.60376465 61.14985596 5.77344727 60.99331543 4.91796875 60.83203125 C4.18344482 60.69514893 3.4489209 60.5582666 2.69213867 60.41723633 C1 60 1 60 0 59 C-0.09381302 57.15881971 -0.11743954 55.31402359 -0.11352539 53.47045898 C-0.11344986 52.28931015 -0.11337433 51.10816132 -0.11329651 49.89122009 C-0.10813522 48.6058284 -0.10297394 47.32043671 -0.09765625 45.99609375 C-0.0962413 44.68794205 -0.09482635 43.37979034 -0.09336853 42.03199768 C-0.0895441 38.54837141 -0.07971446 35.06478661 -0.06866455 31.58117676 C-0.05844882 28.02873292 -0.05387056 24.47628241 -0.04882812 20.92382812 C-0.03809212 13.94920168 -0.0210166 6.97460283 0 0 Z " fill="#0C0C0C" transform="translate(291,203)"/>
<path d="M0 0 C38.20120378 -0.02286494 76.40240653 -0.0404975 114.60361576 -0.05106533 C119.10870934 -0.05231611 123.61380292 -0.05361042 128.11889648 -0.05493164 C129.01581861 -0.05519395 129.91274073 -0.05545626 130.83684231 -0.05572652 C145.37938683 -0.06008352 159.92192742 -0.06797123 174.4644696 -0.0771528 C189.37498781 -0.08648851 204.28550395 -0.09205543 219.19602495 -0.09408849 C228.40426008 -0.09546389 237.61248409 -0.09981539 246.82071579 -0.10791647 C253.12629044 -0.11318291 259.4318593 -0.11480453 265.73743599 -0.11350138 C269.38102194 -0.11285784 273.0245884 -0.11387729 276.66817093 -0.11920547 C280.6089831 -0.12492657 284.54976944 -0.12300113 288.49058533 -0.12025452 C289.65495697 -0.12316736 290.81932862 -0.1260802 292.01898426 -0.12908131 C293.06599398 -0.12709026 294.1130037 -0.12509921 295.19174099 -0.12304783 C296.10269006 -0.12342755 297.01363913 -0.12380727 297.95219272 -0.1241985 C300 0 300 0 301 1 C301.08713831 2.70772358 301.10700007 4.41898649 301.09765625 6.12890625 C301.09443359 7.16337891 301.09121094 8.19785156 301.08789062 9.26367188 C301.07951172 10.35228516 301.07113281 11.44089844 301.0625 12.5625 C301.05798828 13.65498047 301.05347656 14.74746094 301.04882812 15.87304688 C301.03699826 18.58208495 301.02051543 21.29101599 301 24 C297.92120315 24.89851529 295.17396065 25.12607342 291.97153378 25.12863445 C290.95175157 25.1318589 289.93196936 25.13508335 288.88128465 25.1384055 C287.76271643 25.1368569 286.6441482 25.1353083 285.49168396 25.13371277 C283.70726185 25.1371111 283.70726185 25.1371111 281.88679081 25.14057809 C278.58374407 25.14581924 275.2807517 25.14656197 271.97770464 25.14538372 C268.41598979 25.14517983 264.85428309 25.15069719 261.29257202 25.15544128 C254.31504343 25.16375023 247.33752329 25.16649621 240.35999017 25.16705366 C234.69077309 25.16752858 229.0215588 25.16958211 223.35234261 25.17275429 C207.28795001 25.18156049 191.2235641 25.18617356 175.15916907 25.18542381 C174.29300314 25.18538386 173.42683721 25.1853439 172.53442383 25.18530273 C171.66720387 25.18526185 170.79998391 25.18522097 169.90648455 25.18517885 C155.84082575 25.18477209 141.77519369 25.19434925 127.70954262 25.2084411 C113.2757512 25.22278804 98.84197284 25.22971226 84.4081741 25.22884732 C76.30108547 25.22851484 68.19402489 25.2312847 60.08694267 25.24202538 C53.18696335 25.25110814 46.28702479 25.25332392 39.3870421 25.24651595 C35.86467562 25.24323982 32.34238745 25.24323324 28.82002831 25.2518692 C25.00709291 25.26112178 21.19427328 25.25498698 17.3813324 25.24723816 C16.26053345 25.25238172 15.1397345 25.25752529 13.98497194 25.26282471 C12.96779748 25.25822592 11.95062302 25.25362712 10.90262508 25.24888897 C10.02194361 25.24910634 9.14126213 25.24932371 8.23389333 25.24954766 C6 25 6 25 3 23 C2.3840332 21.19995117 2.3840332 21.19995117 2.05078125 19.04296875 C1.86225586 17.86831055 1.86225586 17.86831055 1.66992188 16.66992188 C1.55197266 15.85072266 1.43402344 15.03152344 1.3125 14.1875 C1.18294922 13.37990234 1.05339844 12.57230469 0.91992188 11.74023438 C0.30556802 7.77131341 -0.02422179 4.02079179 0 0 Z " fill="#0D0D0D" transform="translate(102,81)"/>
<path d="M0 0 C93.06 0 186.12 0 282 0 C281 13 281 13 278 25 C186.26 25 94.52 25 0 25 C0 16.75 0 8.5 0 0 Z " fill="#181818" transform="translate(410,188)"/>
<path d="M0 0 C91.08 0 182.16 0 276 0 C273.53006063 6.17484842 270.77694149 8.63512418 265.01171875 11.46875 C260.00862839 13.53622961 254.76071283 14.65839931 249.5 15.875 C247.84774414 16.26353149 247.84774414 16.26353149 246.16210938 16.65991211 C229.71251947 20.50277924 213.20220419 23.99245346 196.63061523 27.26586914 C191.58643917 28.26615423 186.56277204 29.2956043 181.5625 30.5 C174.03295474 32.30342288 166.41242768 33.65228661 158.80615234 35.0871582 C152.39258076 36.30947152 146.02843671 37.63239914 139.6875 39.1875 C133.99887549 40.58078415 128.34174783 41.62411894 122.54296875 42.4453125 C117.42766302 43.24616522 112.36650724 44.28576116 107.2956543 45.328125 C97.55090269 47.32390248 87.77326133 49.15016817 78 51 C77.01845947 51.18596741 76.03691895 51.37193481 75.02563477 51.5635376 C68.89185522 52.72535141 62.75730661 53.88301334 56.62207031 55.03710938 C54.52620631 55.43176378 52.43050505 55.82728337 50.33496094 56.22363281 C39.24345274 58.32109846 28.17007727 60.36497884 17 62 C13.88265209 62.53047307 10.76913032 63.07694101 7.65625 63.6328125 C5 64 5 64 0 64 C0 42.88 0 21.76 0 0 Z M9 9 C9 23.52 9 38.04 9 53 C14.86019221 52.41398078 20.34146183 51.85829545 26.0703125 50.80078125 C27.36300049 50.56407715 28.65568848 50.32737305 29.98754883 50.08349609 C31.36672602 49.82664127 32.74587573 49.56963882 34.125 49.3125 C35.5763632 49.04479814 37.02778029 48.77738829 38.47924805 48.51025391 C42.24023239 47.81678401 46.00018518 47.11788502 49.75982666 46.41717529 C51.95214235 46.00891227 54.14472137 45.60209697 56.33740234 45.19580078 C69.9209463 42.67797953 83.50032862 40.14354845 97.04003906 37.39794922 C102.87201955 36.21652351 108.7147626 35.10054386 114.5625 34 C121.91091215 32.61329112 129.23421156 31.13765465 136.54614258 29.5703125 C142.17728233 28.36800853 147.82124606 27.24522398 153.47265625 26.14233398 C179.82805492 21.99772906 179.82805492 21.99772906 202 9 C138.31 9 74.62 9 9 9 Z " fill="#252525" transform="translate(410,218)"/>
<path d="M0 0 C37.29 0 74.58 0 113 0 C113 15.51 113 31.02 113 47 C110.16783258 47.94405581 108.44032159 48.1256012 105.50790405 48.12698364 C104.58808243 48.12980347 103.6682608 48.13262329 102.7205658 48.13552856 C101.71369217 48.13350433 100.70681854 48.1314801 99.66943359 48.12939453 C98.07647713 48.13202301 98.07647713 48.13202301 96.45133972 48.13470459 C92.93368913 48.13911361 89.41608862 48.13618884 85.8984375 48.1328125 C83.46131378 48.13348571 81.02419013 48.13445588 78.58706665 48.13571167 C73.47763429 48.13718727 68.3682194 48.1350381 63.25878906 48.13037109 C56.69324545 48.12466786 50.12774266 48.12795745 43.56220055 48.13394356 C38.53009734 48.13754772 33.49800391 48.13641136 28.46590042 48.13381577 C26.04406352 48.13314641 23.62222574 48.13397522 21.20038986 48.13629532 C17.82416159 48.13882012 14.44800058 48.13498396 11.07177734 48.12939453 C9.55539421 48.13243088 9.55539421 48.13243088 8.00837708 48.13552856 C7.0941951 48.13270874 6.18001312 48.12988892 5.23812866 48.12698364 C4.43914343 48.12660662 3.6401582 48.12622959 2.81696129 48.12584114 C1 48 1 48 0 47 C0 31.49 0 15.98 0 0 Z " fill="#0C0C0C" transform="translate(410,43)"/>
<path d="M0 0 C107.25 0 214.5 0 325 0 C325 10.56 325 21.12 325 32 C321.7 32 318.4 32 315 32 C315 24.41 315 16.82 315 9 C199.17 9.495 199.17 9.495 81 10 C86.26421251 19.64462615 86.26421251 19.64462615 92 29 C92 29.99 92 30.98 92 32 C82.81193897 32.11584636 73.62412927 32.20469056 64.43549728 32.25906086 C60.16881263 32.28515599 55.90262757 32.32055148 51.63623047 32.37719727 C47.5189142 32.43152161 43.40207845 32.46142117 39.28443146 32.47438622 C37.71348759 32.48362549 36.14257006 32.50166814 34.57183075 32.52865028 C32.3712023 32.56494946 30.17255931 32.56994547 27.97167969 32.56762695 C26.71925476 32.57873001 25.46682983 32.58983307 24.17645264 32.60127258 C21 32 21 32 18.71002197 29.66447449 C18.14571472 28.78519791 17.58140747 27.90592133 17 27 C15.84564453 25.41638672 15.84564453 25.41638672 14.66796875 23.80078125 C13.8393232 22.63931904 13.01256112 21.4765112 12.1875 20.3125 C11.7538916 19.70108154 11.3202832 19.08966309 10.87353516 18.4597168 C9.99809371 17.22475943 9.1230871 15.98949369 8.24853516 14.75390625 C7.10753922 13.151068 5.95103544 11.55929824 4.79296875 9.96875 C3.84357422 8.65390625 3.84357422 8.65390625 2.875 7.3125 C2.31554687 6.54550781 1.75609375 5.77851562 1.1796875 4.98828125 C0 3 0 3 0 0 Z " fill="#1A1A1A" transform="translate(78,43)"/>
<path d="M0 0 C1.02549265 -0.00260775 2.0509853 -0.00521549 3.10755348 -0.00790226 C4.24789732 -0.00567154 5.38824116 -0.00344082 6.56314087 -0.0011425 C7.76385412 -0.00270249 8.96456738 -0.00426248 10.20166588 -0.00586975 C13.54955825 -0.00918307 16.89739502 -0.00797054 20.24528408 -0.00488353 C23.84995661 -0.00263132 27.45462411 -0.00610814 31.05929565 -0.00886345 C38.1268044 -0.01332207 45.19430256 -0.01234427 52.26181173 -0.00945081 C58.00310446 -0.00719713 63.74439421 -0.0068841 69.48568726 -0.00797462 C70.30121925 -0.00812786 71.11675124 -0.00828109 71.95699632 -0.00843897 C73.61346706 -0.00875868 75.26993779 -0.00908289 76.92640853 -0.00941156 C92.47792639 -0.01226662 108.02943837 -0.00897892 123.58095527 -0.00361119 C136.93976618 0.00085687 150.2985684 0.00008095 163.65737915 -0.00452995 C179.15129807 -0.00987526 194.64521183 -0.01199193 210.13913155 -0.00891769 C211.78968429 -0.00859912 213.44023704 -0.00828475 215.09078979 -0.00797462 C216.30910887 -0.00774321 216.30910887 -0.00774321 217.55204046 -0.00750712 C223.28985236 -0.00664183 229.02766101 -0.0081051 234.76547241 -0.01045418 C241.75304211 -0.01325189 248.74060056 -0.01251453 255.72816896 -0.00717343 C259.29682567 -0.00453602 262.86546359 -0.00353201 266.43412018 -0.00682259 C270.29386958 -0.01032788 274.1535879 -0.00615716 278.01333618 -0.0011425 C279.72385194 -0.00448858 279.72385194 -0.00448858 281.46892357 -0.00790226 C282.49441622 -0.00529452 283.51990887 -0.00268677 284.57647705 0 C285.91474769 0.00024353 285.91474769 0.00024353 287.28005409 0.00049198 C289.28823853 0.12584114 289.28823853 0.12584114 290.28823853 1.12584114 C290.38844782 3.40531906 290.41905156 5.68791249 290.42105103 7.96959114 C290.42248611 8.9960273 290.42248611 8.9960273 290.4239502 10.04319954 C290.42463182 11.49245991 290.42277875 12.94172332 290.41860962 14.39097786 C290.41326105 16.61647042 290.41855512 18.84176115 290.42495728 21.06724739 C290.42429649 22.47219576 290.42301532 23.87714399 290.42105103 25.28209114 C290.4199231 26.56922005 290.41879517 27.85634895 290.41763306 29.18248177 C290.28823853 32.12584114 290.28823853 32.12584114 289.28823853 33.12584114 C286.31823853 33.12584114 283.34823853 33.12584114 280.28823853 33.12584114 C280.28823853 25.20584114 280.28823853 17.28584114 280.28823853 9.12584114 C209.99823853 9.12584114 139.70823853 9.12584114 67.28823853 9.12584114 C68.27823853 17.04584114 68.27823853 17.04584114 69.28823853 25.12584114 C69.28823853 27.76584114 69.28823853 30.40584114 69.28823853 33.12584114 C46.18823853 33.12584114 23.08823853 33.12584114 -0.71176147 33.12584114 C-4.71176147 11.12584114 -4.71176147 11.12584114 -5.71176147 1.12584114 C-4.0799477 -0.50597263 -2.25280205 0.00040995 0 0 Z " fill="#070707" transform="translate(112.71176147460938,110.87415885925293)"/>
<path d="M0 0 C95.37 0 190.74 0 289 0 C286.72865275 18.17077799 286.72865275 18.17077799 285.4375 24.9375 C285.31181641 25.62005859 285.18613281 26.30261719 285.05664062 27.00585938 C284.13045528 31.86954472 284.13045528 31.86954472 283 33 C280.91380978 33.09417773 278.82439523 33.11742878 276.73608398 33.11352539 C275.7556311 33.11374443 275.7556311 33.11374443 274.75537109 33.1139679 C272.58557872 33.11326883 270.41587121 33.10547678 268.24609375 33.09765625 C266.74536689 33.09579205 265.24463943 33.09436816 263.74391174 33.09336853 C259.78681774 33.08954352 255.82976022 33.0797134 251.87268066 33.06866455 C247.83765151 33.05845006 243.80261647 33.05387083 239.76757812 33.04882812 C231.84503531 33.03809111 223.92252219 33.0210149 216 33 C215.98907895 31.40691642 215.98130679 29.81381106 215.97485352 28.22070312 C215.9701857 27.33354614 215.96551788 26.44638916 215.96070862 25.53234863 C216.00847825 22.45357288 216.39157489 19.52848966 216.9375 16.5 C217.11152344 15.4996875 217.28554688 14.499375 217.46484375 13.46875 C218 11 218 11 219 9 C218.01 9.33 217.02 9.66 216 10 C213.82797851 10.09417584 211.65311177 10.12629723 209.47904968 10.12698364 C208.81317756 10.12854363 208.14730544 10.13010362 207.46125537 10.13171089 C205.223741 10.13570746 202.9862942 10.13253589 200.7487793 10.12939453 C199.14498861 10.13074962 197.54119823 10.13253016 195.93740845 10.13470459 C191.56533163 10.13927896 187.19327833 10.13748596 182.82120109 10.1343255 C178.21183953 10.13178672 173.60247993 10.13414507 168.99311829 10.13571167 C161.21423994 10.13753532 153.43537105 10.13512861 145.65649414 10.13037109 C136.76569295 10.12499497 127.87491492 10.126641 118.98411435 10.1321975 C111.29604802 10.13680421 103.60798849 10.13734108 95.91992122 10.13475883 C91.35466278 10.13322812 86.78941501 10.13290955 82.22415733 10.13629532 C57.79962426 10.15199378 33.41290016 9.75897269 9 9 C9 16.92 9 24.84 9 33 C6.03 33 3.06 33 0 33 C0 22.11 0 11.22 0 0 Z " fill="#1D1D1D" transform="translate(410,150)"/>
<path d="M0 0 C64.35 0 128.7 0 195 0 C190.06806997 12.32982509 190.06806997 12.32982509 185 17 C179.04311816 18.75742861 173.27292228 18.5224987 167.109375 18.36230469 C165.28556035 18.35891692 163.46172935 18.36082545 161.63792419 18.36761475 C156.70116099 18.37105071 151.76791389 18.30063404 146.8319664 18.21672726 C141.66851507 18.14158288 136.5049782 18.13465272 131.34106445 18.12042236 C121.56928996 18.08316121 111.7991313 17.98474115 102.02806759 17.86422849 C90.9013577 17.72998226 79.77456959 17.664092 68.64725113 17.60388327 C45.76390867 17.47853547 22.88211316 17.26511574 0 17 C0 11.39 0 5.78 0 0 Z " fill="#0E0E0E" transform="translate(529,58)"/>
<path d="M0 0 C51.81 0 103.62 0 157 0 C157 5.94 157 11.88 157 18 C141.65545865 18.13999461 126.31101311 18.24652247 110.96598148 18.31087303 C103.83801852 18.34157091 96.71046403 18.38327796 89.58276367 18.45263672 C83.35690581 18.51318992 77.13134419 18.55132297 70.90519994 18.56453097 C67.62036856 18.5722296 64.3365621 18.59313944 61.05195808 18.63438034 C47.79859788 18.79392863 35.20755065 18.36469829 22.25561523 15.33837891 C20.74687253 14.98868073 20.74687253 14.98868073 19.20765018 14.63191795 C11.6662146 12.65482493 4.44579388 9.66869082 0 3 C0 2.01 0 1.02 0 0 Z " fill="#1E1E1E" transform="translate(127,218)"/>
<path d="M0 0 C0.9339006 -0.00281982 1.86780121 -0.00563965 2.83000183 -0.00854492 C4.37915031 -0.00550858 4.37915031 -0.00550858 5.95959473 -0.00241089 C7.04078079 -0.00416321 8.12196686 -0.00591553 9.23591614 -0.00772095 C12.82937194 -0.01214194 16.422779 -0.0092006 20.01623535 -0.00582886 C22.50105804 -0.00650183 24.98588066 -0.00747179 27.47070312 -0.00872803 C33.3556191 -0.01039494 39.24051722 -0.00688213 45.12543058 -0.00157726 C49.82618134 0.00217756 54.52691116 0.00084998 59.22766113 -0.00338745 C65.69322825 -0.00916673 72.15877506 -0.01010088 78.62434387 -0.00683212 C81.09642034 -0.00616261 83.56849765 -0.00699213 86.04057312 -0.00931168 C89.48886433 -0.01183674 92.9370897 -0.00799966 96.38537598 -0.00241089 C97.41814163 -0.00443512 98.45090729 -0.00645935 99.51496887 -0.00854492 C100.91581978 -0.00431519 100.91581978 -0.00431519 102.3449707 0 C103.16130226 0.00037703 103.97763382 0.00075405 104.8187027 0.0011425 C106.67248535 0.12698364 106.67248535 0.12698364 107.67248535 1.12698364 C107.67248535 6.73698364 107.67248535 12.34698364 107.67248535 18.12698364 C70.38248535 18.12698364 33.09248535 18.12698364 -5.32751465 18.12698364 C-5.32751465 0.00246053 -5.32751465 0.00246053 0 0 Z " fill="#1D1D1D" transform="translate(415.3275146484375,110.87301635742188)"/>
<path d="M0 0 C14.45532868 -0.02311997 28.91065299 -0.04091331 43.36599636 -0.05181217 C50.07741868 -0.05697489 56.78882932 -0.06401713 63.50024414 -0.07543945 C69.97113736 -0.08626565 76.44201842 -0.09227626 82.91292 -0.09487724 C85.38778945 -0.09673198 87.8626582 -0.1003535 90.33752251 -0.10573006 C93.79070373 -0.11293693 97.24383401 -0.11399109 100.69702148 -0.11352539 C101.73135818 -0.11712067 102.76569489 -0.12071594 103.83137512 -0.12442017 C104.76672089 -0.1230455 105.70206665 -0.12167084 106.66575623 -0.12025452 C107.4833866 -0.12117631 108.30101698 -0.1220981 109.14342403 -0.12304783 C111 0 111 0 112 1 C112.09981214 3.6773138 112.13879875 6.32304175 112.125 9 C112.12886719 9.75023437 112.13273437 10.50046875 112.13671875 11.2734375 C112.12661053 16.87338947 112.12661053 16.87338947 111 18 C109.55786001 18.09558036 108.11105921 18.12188394 106.66575623 18.12025452 C105.73041046 18.12162918 104.7950647 18.12300385 103.83137512 18.12442017 C102.79703842 18.12082489 101.76270172 18.11722961 100.69702148 18.11352539 C99.61422913 18.11367142 98.53143677 18.11381744 97.41583252 18.1139679 C93.81756626 18.11326823 90.21935103 18.10547333 86.62109375 18.09765625 C84.13387582 18.09579226 81.64665752 18.09436827 79.15943909 18.09336853 C73.26978809 18.0899335 67.3801561 18.08204277 61.49051291 18.07201904 C54.12974626 18.05976246 46.76897736 18.05437791 39.40820312 18.04882812 C26.27212574 18.03808815 13.13606469 18.02100993 0 18 C0 12.06 0 6.12 0 0 Z " fill="#1B1B1B" transform="translate(291,165)"/>
<path d="M0 0 C1.02549265 -0.00260775 2.0509853 -0.00521549 3.10755348 -0.00790226 C4.24789732 -0.00567154 5.38824116 -0.00344082 6.56314087 -0.0011425 C7.76385412 -0.00270249 8.96456738 -0.00426248 10.20166588 -0.00586975 C13.54955825 -0.00918307 16.89739502 -0.00797054 20.24528408 -0.00488353 C23.84995661 -0.00263132 27.45462411 -0.00610814 31.05929565 -0.00886345 C38.1268044 -0.01332207 45.19430256 -0.01234427 52.26181173 -0.00945081 C58.00310446 -0.00719713 63.74439421 -0.0068841 69.48568726 -0.00797462 C70.30121925 -0.00812786 71.11675124 -0.00828109 71.95699632 -0.00843897 C73.61346706 -0.00875868 75.26993779 -0.00908289 76.92640853 -0.00941156 C92.47792639 -0.01226662 108.02943837 -0.00897892 123.58095527 -0.00361119 C136.93976618 0.00085687 150.2985684 0.00008095 163.65737915 -0.00452995 C179.15129807 -0.00987526 194.64521183 -0.01199193 210.13913155 -0.00891769 C211.78968429 -0.00859912 213.44023704 -0.00828475 215.09078979 -0.00797462 C216.30910887 -0.00774321 216.30910887 -0.00774321 217.55204046 -0.00750712 C223.28985236 -0.00664183 229.02766101 -0.0081051 234.76547241 -0.01045418 C241.75304211 -0.01325189 248.74060056 -0.01251453 255.72816896 -0.00717343 C259.29682567 -0.00453602 262.86546359 -0.00353201 266.43412018 -0.00682259 C270.29386958 -0.01032788 274.1535879 -0.00615716 278.01333618 -0.0011425 C279.72385194 -0.00448858 279.72385194 -0.00448858 281.46892357 -0.00790226 C282.49441622 -0.00529452 283.51990887 -0.00268677 284.57647705 0 C285.91474769 0.00024353 285.91474769 0.00024353 287.28005409 0.00049198 C289.28823853 0.12584114 289.28823853 0.12584114 290.28823853 1.12584114 C290.38844782 3.40531906 290.41905156 5.68791249 290.42105103 7.96959114 C290.42248611 8.9960273 290.42248611 8.9960273 290.4239502 10.04319954 C290.42463182 11.49245991 290.42277875 12.94172332 290.41860962 14.39097786 C290.41326105 16.61647042 290.41855512 18.84176115 290.42495728 21.06724739 C290.42429649 22.47219576 290.42301532 23.87714399 290.42105103 25.28209114 C290.4199231 26.56922005 290.41879517 27.85634895 290.41763306 29.18248177 C290.28823853 32.12584114 290.28823853 32.12584114 289.28823853 33.12584114 C286.31823853 33.12584114 283.34823853 33.12584114 280.28823853 33.12584114 C280.28823853 25.20584114 280.28823853 17.28584114 280.28823853 9.12584114 C209.99823853 9.12584114 139.70823853 9.12584114 67.28823853 9.12584114 C67.28823853 10.77584114 67.28823853 12.42584114 67.28823853 14.12584114 C66.95823853 14.12584114 66.62823853 14.12584114 66.28823853 14.12584114 C66.28823853 12.14584114 66.28823853 10.16584114 66.28823853 8.12584114 C137.23823853 8.12584114 208.18823853 8.12584114 281.28823853 8.12584114 C281.28823853 16.04584114 281.28823853 23.96584114 281.28823853 32.12584114 C283.59823853 32.12584114 285.90823853 32.12584114 288.28823853 32.12584114 C288.28823853 22.22584114 288.28823853 12.32584114 288.28823853 2.12584114 C191.92823853 2.12584114 95.56823853 2.12584114 -3.71176147 2.12584114 C-3.71176147 5.09584114 -3.71176147 8.06584114 -3.71176147 11.12584114 C-4.04176147 11.12584114 -4.37176147 11.12584114 -4.71176147 11.12584114 C-4.90582625 9.48076896 -5.09184083 7.8347452 -5.27426147 6.18834114 C-5.37867554 5.2718177 -5.4830896 4.35529427 -5.59066772 3.41099739 C-5.63062866 2.65689583 -5.6705896 1.90279427 -5.71176147 1.12584114 C-4.0799477 -0.50597263 -2.25280205 0.00040995 0 0 Z " fill="#A2A2A2" transform="translate(112.71176147460938,110.87415885925293)"/>
<path d="M0 0 C1.32125518 0.24321005 1.32125518 0.24321005 2.66920239 0.49133343 C8.51308758 1.31733544 14.40330901 1.14345037 20.2927618 1.1386652 C21.65844178 1.14111451 23.02412103 1.14399894 24.38979927 1.14727798 C28.14902752 1.15504095 31.90823695 1.1566195 35.66747223 1.1572054 C39.75470917 1.15893518 43.84193618 1.16642096 47.92916733 1.17318195 C55.09453258 1.18423952 62.25989431 1.19161095 69.42526627 1.19658089 C80.0799364 1.20398766 90.73459425 1.21707099 101.38925715 1.23132664 C119.31152303 1.25514491 137.23379108 1.27434584 155.15606499 1.29092598 C172.90438575 1.30736024 190.65270243 1.32584016 208.40101814 1.34705925 C209.504069 1.34837686 210.60711986 1.34969446 211.7435965 1.351052 C217.34530958 1.35775397 222.94702261 1.36449257 228.54873563 1.37124526 C268.23780873 1.41902331 307.92688564 1.46220403 347.6159668 1.50268555 C386.17619097 1.54202618 424.73641198 1.58344646 463.29663086 1.62768555 C465.07915259 1.62972934 465.07915259 1.62972934 466.89768487 1.63181442 C478.83143391 1.64549966 490.76518291 1.65922721 502.69893187 1.67298577 C527.0099047 1.7010132 551.32087785 1.72875818 575.6318512 1.7563324 C576.74965935 1.7576006 577.8674675 1.7588688 579.01914863 1.76017542 C653.6794273 1.84484818 728.33971314 1.92293644 803 2 C801 4 801 4 798.65926643 4.24671165 C797.66754163 4.24515184 796.67581682 4.24359204 795.65403974 4.24198496 C794.50997848 4.24504613 793.36591722 4.2481073 792.18718743 4.25126123 C790.91698684 4.24440286 789.64678624 4.23754449 788.33809471 4.23047829 C786.97994836 4.23024976 785.62180162 4.23090014 784.26365602 4.232355 C780.50198685 4.23380255 776.74044091 4.22265189 772.97879794 4.20959318 C768.89766775 4.19761114 764.81653444 4.19719123 760.73538935 4.1953491 C753.57295109 4.19050269 746.41055547 4.17817404 739.24813652 4.16103554 C728.59778287 4.13558443 717.94743594 4.12155178 707.29705934 4.10991575 C689.38395024 4.09001861 671.47086764 4.06077624 653.55778122 4.02626419 C635.81370921 3.9921081 618.06963816 3.96207107 600.32555008 3.93757248 C599.22354187 3.93604865 598.12153366 3.93452483 596.98613126 3.93295482 C591.38991355 3.92523807 585.79369574 3.91759526 580.19747789 3.90998094 C540.52779652 3.85587242 500.85813487 3.79247224 461.18847656 3.72363281 C422.64258446 3.65676468 384.09668929 3.59408971 345.55078125 3.53710938 C344.36326985 3.53535227 343.17575845 3.53359516 341.95226186 3.5317848 C330.02711828 3.51414434 318.10197457 3.49658931 306.17683076 3.47909689 C281.88250436 3.44345876 257.58817881 3.40725026 233.29385376 3.37069702 C232.17676465 3.36901695 231.05967553 3.36733688 229.90873523 3.3656059 C155.2724748 3.25328979 80.63623554 3.12767636 6 3 C5.67 3.66 5.34 4.32 5 5 C4.67 4.01 4.34 3.02 4 2 C2.68 2 1.36 2 0 2 C0 1.34 0 0.68 0 0 Z " fill="#424242" transform="translate(3,5)"/>
<path d="M0 0 C1.01783853 0.16173675 2.03567705 0.32347349 3.08435917 0.49011135 C6.66042585 0.95578118 10.04839849 1.13750106 13.6502533 1.15821838 C14.94724152 1.1680072 16.24422974 1.17779602 17.58052063 1.18788147 C19.00021326 1.19378415 20.41990627 1.19959469 21.83959961 1.20532227 C23.34800478 1.2149117 24.85640732 1.22492239 26.36480713 1.23532104 C30.44482412 1.26226086 34.52485255 1.28332927 38.6049087 1.30332303 C42.87436788 1.32525029 47.14379223 1.35260589 51.41322327 1.37937927 C59.4913532 1.42921528 67.56950255 1.4741877 75.64767033 1.51740164 C84.84719694 1.5668519 94.0466886 1.62174105 103.24618137 1.67708123 C122.16408843 1.79076163 141.08202852 1.89763082 160 2 C160 2.33 160 2.66 160 3 C109.18 3 58.36 3 6 3 C5.67 3.66 5.34 4.32 5 5 C4.67 4.01 4.34 3.02 4 2 C2.68 2 1.36 2 0 2 C0 1.34 0 0.68 0 0 Z " fill="#414141" transform="translate(3,5)"/>
<path d="M0 0 C-9.54183631 4.33719832 -21.340228 9.66623575 -32 9 C-29.74757915 6.74757915 -28.85476464 6.58646065 -25.8125 6 C-20.74889776 4.9551297 -15.85978738 3.64469434 -10.96875 1.94921875 C-9.8859375 1.57410156 -8.803125 1.19898438 -7.6875 0.8125 C-6.66011719 0.44769531 -5.63273438 0.08289063 -4.57421875 -0.29296875 C-2 -1 -2 -1 0 0 Z " fill="#AFAFAF" transform="translate(701,247)"/>
<path d="M0 0 C-5.35233495 3.5682233 -11.63026469 4.32665309 -18 4 C-15.07675293 2.05116862 -13.48916982 1.51920273 -10.125 0.875 C-8.86042969 0.62363281 -8.86042969 0.62363281 -7.5703125 0.3671875 C-5.00848085 0.00121155 -2.58390011 -0.06482904 0 0 Z " fill="#9F9F9F" transform="translate(608,269)"/>
<path d="M0 0 C1.423125 0.2165625 1.423125 0.2165625 2.875 0.4375 C7.56740347 1.11197278 12.28134412 1.55376896 17 2 C17 2.33 17 2.66 17 3 C13.37 3 9.74 3 6 3 C5.67 3.66 5.34 4.32 5 5 C4.67 4.01 4.34 3.02 4 2 C2.68 2 1.36 2 0 2 C0 1.34 0 0.68 0 0 Z " fill="#9E9E9E" transform="translate(3,5)"/>
<path d="M0 0 C1.26328125 0.02707031 2.5265625 0.05414063 3.828125 0.08203125 C4.79234375 0.11683594 5.7565625 0.15164063 6.75 0.1875 C6.75 0.5175 6.75 0.8475 6.75 1.1875 C0.63019467 2.59204548 -4.96739294 3.42018915 -11.25 3.1875 C-7.67487951 -0.25219926 -4.83224625 -0.13422906 0 0 Z " fill="#959595" transform="translate(443.25,274.8125)"/>
<path d="M0 0 C8.03571429 0.80357143 8.03571429 0.80357143 12 3 C10.56344146 3.08131463 9.1255517 3.13933559 7.6875 3.1875 C6.48673828 3.23970703 6.48673828 3.23970703 5.26171875 3.29296875 C2.52148416 2.93801608 1.70828921 2.10633718 0 0 Z " fill="#8D8D8D" transform="translate(141,240)"/>
</svg>
