<?xml version="1.0" encoding="UTF-8"?>
<svg xmlns="http://www.w3.org/2000/svg" version="1.1" xmlns:i="http://ns.adobe.com/AdobeIllustrator/10.0/" xmlns:inkscape="http://www.inkscape.org/namespaces/inkscape" xmlns:sodipodi="http://sodipodi.sourceforge.net/DTD/sodipodi-0.dtd" xmlns:svg="http://www.w3.org/2000/svg" viewBox="380 0 1810.8916 670.0884">
  <!-- Generator: Adobe Illustrator 29.5.0, SVG Export Plug-In . SVG Version: 2.1.0 Build 137)  -->
  <defs>
    <style>
      .st0 {
        fill: #fff;
      }
    </style>
  </defs>
  <g id="svg2" sodipodi:docname="84dc7d61bae98b67b29568964344f868.ai">
    <g>
      <path id="path20" class="st0" d="M1327.239,665.8264c-145.9742-22.8438-439.3909-81.9517-568.3031-112.5172-99.787-23.7368-111.474-56.3081-123.5433-111.8233l-.4654-2.15c-3.7027-16.996-34.9974-185.7101-47.994-256.6688L457.5472,0h1744.6366l-129.3861,182.6671c-12.3186,67.2658-44.2852,239.5249-47.9903,256.6492l-.4679,2.1695c-12.0681,55.5153-23.7563,88.0866-123.5335,111.8209-128.5506,30.4824-421.9844,89.5684-568.5046,112.5196l-2.5336.3958-2.5287-.3958Z"/>
      <path id="path24" d="M2170.5518,16.3579l-113.1976,159.8038c-12.4138,67.8668-44.8532,242.6791-48.5351,259.6947-10.6523,48.9272-15.7598,78.6864-111.7989,101.5376-127.8653,30.3162-420.334,89.2581-567.2513,112.2717-146.8635-22.9855-439.1917-81.9554-567.0559-112.2717-96.0404-22.8511-101.1442-52.6103-111.8013-101.5376-3.6806-16.9044-36.1238-191.8279-48.5364-259.6947L489.1839,16.3579h1681.368Z"/>
      <path id="path28" class="st0" d="M2081.2895,46.4004H578.555l89.2617,127.45c22.3136,132.5489,36.12,217.7659,41.8395,247.4751,9.9304,51.6868,11.687,73.9747,65.0792,88.3675,106.1625,25.1037,413.8351,88.3676,555.2296,109.7063,141.3932-21.3388,449.0928-84.5171,555.3139-109.7063,53.386-14.3928,55.1439-36.6808,65.073-88.3676,5.5827-29.7091,19.5259-114.9262,41.8457-247.4751l89.092-127.4499Z"/>
      <path id="path32" d="M856.5466,303.7226h-144.3226l-11.1556-66.1358h619.6894v66.1358h-16.7346v-50.6277h-452.7209l5.2443,50.6277Z"/>
      <path id="path36" d="M698.555,222.4952h622.036v-48.4777h-630.0985l8.0625,48.4777Z"/>
      <path id="path40" d="M1087.6202,385.1453h233.0529v-34.7262h-232.9687l-.0843,34.7262Z"/>
      <path id="path44" d="M684.4136,158.59h147.4205l-27.8951-48.507h500.1126v48.3103h16.7346v-65.0754h-682.037l45.6643,65.2721Z"/>
      <path id="path48" d="M1574.2321,93.3189h-235.1174v97.4342h235.2286l-.1112-97.4342Z"/>
      <path id="path52" d="M745.7801,469.0218c3.8211,5.8013,10.9052,12.5543,34.422,18.9408,11.3804,2.7913,24.0446,5.5815,41.5622,9.4844h249.5652v-34.3927h-328.7855c.8698,2.084,1.9374,4.0838,3.181,5.9675h.055Z"/>
      <path id="path56" d="M731.5254,416.4701h339.8054v-97.1557h-356.5107l16.7053,97.1557Z"/>
      <path id="path60" d="M1087.6202,552.7611c87.0299,17.1243,172.1065,32.9402,233.1934,42.5102v-163.0398h-233.1934v120.5296Z"/>
      <path id="path64" d="M1590.355,303.7226h357.2657l16.3193-97.4635h-373.585v97.4635Z"/>
      <path id="path68" d="M1590.355,124.3079v34.5894l384.2653-.1405,24.0996-34.4489h-408.3649Z"/>
      <path id="path72" d="M1339.1138,385.1453h16.7346v-49.0677h444.5753c-.5864,4.7715-4.741,37.6592-6.8886,49.2045h140.3903l11.1568-65.9684h-605.9684v65.8316Z"/>
      <path id="path76" d="M1339.1138,448.6884h582.9866l9.4234-48.2847h-592.4099v48.2847Z"/>
      <path id="path78" d="M1574.344,237.615h-235.2298v34.7824h235.2298v-34.7824Z"/>
      <path id="path82" d="M1470.9122,555.0743c-23.2359,4.4368-88.3969,15.7891-115.0618,20.6156v-95.9292h411.9674c-19.7238,23.2066-60.3088,30.1-296.9056,75.3136M1339.1134,463.0542v132.1616c148.2036-24.2401,435.9839-81.3104,540.6975-107.3633,23.6549-5.8869,30.6559-13.0283,34.477-18.8296,1.2595-1.869,2.3113-3.8676,3.126-5.9687h-578.3006Z"/>
    </g>
    <g>
    </g>
    <g>
    </g>
  </g>
</svg>