<svg xmlns="http://www.w3.org/2000/svg" xmlns:xlink="http://www.w3.org/1999/xlink" viewBox="6.177 47.70625 148.39454999999995 29.587500000000002">
  <path d="M35.713 68.582C46.768 50.266 57.15 32.421 57.15 32.421l90.488-15.289c-3.146 7.083-8.646 18.165-14.092 25.248 0 0-17.662 20.323-28.796 17.871-30.688-6.758-78.644 24.252-69.035 8.332z" fill="#000000"/>
  <g clip-rule="evenodd" fill-rule="evenodd">
    <path d="M77.306 18.243h51.702c9.279-1.099 16.666-3.999 25.436-11.993-5.48 9.512-11.723 24.919-34.95 27.09H73.572c-11.182 1.274-20.689 8.04-26.057 15.511C59.6 23.039 66.981 19.592 77.294 18.243z" fill="#ffffff"/>
    <path d="M63.865 52.367h44.669c12.256-1.605 14.865-2.77 25.23-10.339-11.515 20.619-36.547 25.044-38.029 25.02H61.6c-8.634.952-11.734 3.418-15.717 6.622L6.177 118.75l27.506-46.533c1.24-2.479 7.525-16.271 30.192-19.85z" fill="#ffffff"/>
    <path d="M103.03 42.954v.02c0 6.314-5.153 11.462-11.469 11.462s-11.469-5.148-11.469-11.462v-.02z" fill="#ffffff"/>
    <path d="M91.557 31.514c6.311 0 11.457 5.136 11.468 11.44H80.094c.011-6.304 5.157-11.44 11.465-11.44z" fill="#ffffff"/>
    <path d="M93.588 28.485l-.652-1.826c-.132-.312-.422-.516-.943-.661.152-.121.258-.347.258-.606 0-.384-.225-.726-.566-.728-.342.002-.566.344-.566.728 0 .259.105.485.258.606-.521.145-.811.349-.943.661l-.654 1.826-1.105-1.596c-.209-.267-.54-.389-1.084-.394.118-.155.16-.403.094-.653-.1-.371-.404-.641-.734-.556-.331.09-.459.478-.359.849.066.251.229.444.405.52-.466.275-.692.546-.739.882l-.159 1.933-1.481-1.256c-.271-.204-.623-.235-1.148-.101.074-.18.051-.429-.078-.653-.193-.333-.558-.516-.855-.346-.294.172-.316.58-.127.913.132.224.335.369.527.395-.379.386-.528.708-.486 1.045l.348 1.909-1.757-.83c-.313-.126-.662-.065-1.136.2.025-.192-.063-.427-.245-.612-.271-.271-.671-.353-.914-.113-.241.243-.159.643.113.914.185.183.418.27.61.247-.264.47-.325.819-.199 1.134l.83 1.755-1.911-.348c-.336-.042-.656.108-1.044.488-.027-.194-.172-.398-.396-.528-.333-.192-.74-.168-.912.127-.17.297.014.662.348.854.225.128.473.152.654.078-.136.526-.104.879.1 1.149l1.256 1.48-1.938.159c-.335.047-.605.273-.881.74-.075-.179-.27-.339-.52-.406-.371-.099-.76.029-.85.358-.086.33.185.636.557.735.25.066.498.023.653-.093.005.542.127.874.394 1.082l1.596 1.105-1.828.655c-.311.131-.517.421-.662.943-.119-.153-.346-.258-.605-.258-.383 0-.725.224-.728.566.003.342.345.566.728.566.26 0 .486-.105.605-.258.146.522.352.811.662.943l1.828.655-1.598 1.105c-.265.208-.389.54-.393 1.082-.156-.116-.402-.159-.653-.091-.371.099-.643.404-.556.734.09.33.478.458.849.358.251-.067.444-.226.521-.406.274.467.546.693.881.74l1.936.16-1.256 1.48c-.205.27-.234.623-.101 1.147-.181-.073-.429-.05-.655.08-.332.192-.516.557-.346.853.172.295.58.319.912.127.227-.13.369-.334.396-.526.389.38.709.528 1.046.486l1.909-.346-.83 1.755c-.127.313-.066.662.201 1.134-.193-.024-.43.063-.612.246-.272.273-.354.671-.114.914.242.241.645.159.914-.113.185-.183.271-.418.247-.61.472.266.821.327 1.136.199l1.754-.829-.346 1.909c-.043.337.106.658.484 1.045-.191.026-.396.171-.525.395-.193.333-.168.742.126.913.298.169.661-.014.854-.346.13-.225.152-.473.08-.655.524.136.877.104 1.148-.101l1.48-1.254.158 1.935c.047.335.275.607.74.882-.179.076-.339.269-.406.519-.099.371.029.758.359.849.33.087.636-.185.734-.556.068-.25.025-.497-.092-.651.543-.006.873-.128 1.083-.396l1.107-1.596.655 1.826c.133.312.422.516.943.661-.152.119-.258.346-.258.605 0 .385.225.725.566.727.342-.002.566-.342.566-.727 0-.259-.105-.487-.258-.605.521-.145.812-.35.943-.661l.654-1.828 1.104 1.596c.209.267.542.388 1.083.394-.117.154-.16.401-.092.651.1.371.405.643.734.557.33-.09.458-.479.359-.849-.068-.251-.229-.444-.406-.52.465-.275.694-.546.74-.882l.16-1.933 1.48 1.254c.268.204.622.235 1.146.101-.072.18-.05.429.08.655.191.333.557.514.854.345.295-.171.319-.579.127-.911-.129-.226-.334-.371-.526-.396.378-.388.528-.708.485-1.044l-.346-1.909 1.752.829c.316.126.666.065 1.138-.2-.024.194.063.429.245.612.271.272.672.354.916.113.239-.243.155-.643-.115-.914-.184-.183-.418-.27-.611-.246.266-.473.326-.821.2-1.134l-.829-1.755 1.909.346c.336.042.657-.106 1.044-.487.027.192.172.397.396.527.332.192.74.169.912-.127s-.014-.661-.346-.853c-.225-.129-.475-.152-.653-.079.134-.525.103-.877-.103-1.147l-1.256-1.48 1.936-.159c.336-.047.607-.275.883-.74.075.179.269.339.52.406.37.099.76-.029.848-.358.088-.331-.183-.636-.555-.735-.252-.067-.498-.024-.653.093-.007-.542-.127-.874-.396-1.083l-1.595-1.103 1.827-.655c.313-.132.516-.421.662-.943.119.153.346.258.605.258.385 0 .725-.224.727-.566-.002-.342-.342-.566-.727-.566-.26 0-.486.105-.605.258-.146-.522-.35-.812-.662-.943l-1.828-.653 1.596-1.104c.269-.209.389-.542.396-1.083.153.117.401.16.651.093.371-.099.643-.404.555-.735-.088-.33-.477-.458-.848-.358-.25.067-.442.227-.52.406-.275-.465-.547-.693-.881-.74l-1.936-.159 1.254-1.479c.205-.271.237-.624.102-1.147.18.072.429.049.654-.081.333-.192.516-.556.347-.853-.173-.294-.58-.319-.913-.127-.226.13-.369.334-.396.527-.386-.379-.706-.528-1.045-.487l-1.909.346.829-1.753c.128-.314.066-.662-.2-1.133.194.022.429-.063.613-.248.271-.27.353-.671.112-.914-.242-.239-.642-.157-.913.115-.184.183-.272.418-.247.61-.472-.266-.821-.327-1.136-.198l-1.755.828.348-1.909c.041-.335-.107-.656-.486-1.043.192-.028.396-.173.526-.397.192-.333.168-.74-.126-.913-.298-.169-.662.014-.855.348-.128.224-.152.473-.079.653-.524-.134-.877-.104-1.147.101l-1.48 1.256-.16-1.935c-.045-.336-.272-.606-.74-.882.18-.077.34-.269.406-.519.1-.371-.029-.758-.358-.848-.331-.085-.636.185-.735.555-.067.25-.024.498.094.653-.543.004-.875.126-1.084.394zm-1.904 9.23l-.619-6.076a9.309 9.309 0 0 0-.735.064l.514-4.242-.787 1.346c0 .126-.078.305-.199.282-.113.049-.234-.102-.269-.226l-1.231-1.431.074 1.326 1.898 2.943c-.129.017-.26.034-.387.055-.207.029-.4.067-.594.108l.768 5.25-1.963-4.932a9.992 9.992 0 0 0-.567.203c-.12.047-.241.096-.362.146l.17-3.499-.597-1.182-.353 1.855c.035.124.004.316-.117.328-.094.08-.252-.034-.314-.146l-1.355-.771 2.566 3.417-.123.055a9.91 9.91 0 0 0-.547.258l2.505 5.569-3.573-4.952v-.001c-.166.108-.33.22-.496.343l-.11.081-1.677-3.929-.01 1.558c.066.11.086.304-.03.345-.073.098-.253.027-.345-.063l-1.782-.624.728 1.111 3.116 1.602a10.906 10.906 0 0 0-.768.63l3.292 4.165-4.166-3.29h-.002a11.592 11.592 0 0 0-.629.766l-1.604-3.114-1.11-.728.624 1.784c.09.09.16.271.063.343-.043.115-.234.095-.347.031l-1.558.009 3.931 1.675c-.026.037-.054.073-.081.11-.123.168-.233.33-.342.496l4.955 3.572-5.572-2.502a8.884 8.884 0 0 0-.259.545l-.055.124-3.418-2.565.772 1.354c.109.065.225.223.145.316-.014.12-.206.151-.328.117l-1.857.351 1.186.597 3.501-.168c-.052.119-.101.24-.146.36a8.528 8.528 0 0 0-.203.569l4.934 1.961-5.254-.768a10.32 10.32 0 0 0-.161.98l-2.947-1.896-1.326-.075 1.432 1.231c.123.034.276.156.227.267.022.121-.156.2-.285.2l-1.344.787 4.242-.514c-.005.046-.011.09-.014.134-.024.208-.04.404-.049.601l6.076.618-6.076.618c.009.197.024.394.049.6.003.046.009.09.014.136l-4.242-.514 1.344.787c.129 0 .308.08.283.2.049.111-.102.233-.227.267l-1.431 1.231 1.325-.075 2.947-1.896a11.95 11.95 0 0 0 .162.98l5.253-.766-4.932 1.959c.06.188.124.374.202.567.045.122.096.243.146.362l-3.501-.169-1.186.598 1.855.351c.125-.034.317-.001.329.117.08.095-.033.252-.145.316l-.771 1.354 3.418-2.565.055.124c.082.192.168.368.258.545l5.57-2.502-4.953 3.572c.109.166.219.328.344.497l.08.108-3.932 1.675 1.559.009c.111-.064.305-.084.345.032.098.072.027.253-.062.343l-.624 1.782 1.111-.728 1.603-3.114a9.3 9.3 0 0 0 .631.767l4.164-3.29-3.291 4.165a11.554 11.554 0 0 0 .768.63l-3.114 1.602-.729 1.109 1.783-.624c.091-.09.271-.159.344-.061.116.042.096.235.032.345l.008 1.558 1.677-3.929.109.081c.168.124.33.235.496.342l3.574-4.952-2.503 5.569c.176.09.353.176.545.258l.124.055-2.566 3.417 1.354-.772c.064-.11.223-.225.315-.145.12.014.151.206.117.33l.353 1.855.597-1.186-.169-3.499c.12.052.24.101.363.148.193.076.378.141.566.202l1.961-4.93-.768 5.249a9.49 9.49 0 0 0 .981.163l-1.896 2.945-.075 1.324 1.233-1.43c.031-.124.155-.275.267-.228.124-.023.202.154.202.282l.787 1.345-.514-4.242a8.596 8.596 0 0 0 .735.064l.619-6.074.618 6.074a9.28 9.28 0 0 0 .601-.049c.047-.003.09-.009.135-.015l-.513 4.242.788-1.345c0-.128.077-.305.197-.284.111-.049.234.102.266.226l1.234 1.431-.076-1.326-1.896-2.945c.129-.015.258-.034.388-.053.206-.031.398-.067.593-.108l-.768-5.25 1.962 4.93a9.677 9.677 0 0 0 .928-.349l-.169 3.499.597 1.186.353-1.855c-.034-.124-.002-.316.118-.328.092-.081.25.034.313.145l1.354.771-2.566-3.417.124-.053a8.88 8.88 0 0 0 .544-.26L94.3 47.5l3.574 4.952.496-.343.109-.081 1.677 3.931.008-1.558c-.063-.111-.084-.304.032-.345.071-.098.253-.029.343.061l1.784.623-.729-1.109-3.116-1.602a10.527 10.527 0 0 0 .768-.629l-3.291-4.165 4.166 3.29a12.071 12.071 0 0 0 .631-.767l1.603 3.114 1.11.728-.623-1.782c-.09-.092-.159-.271-.062-.345.04-.115.233-.095.343-.031l1.561-.009-3.933-1.675.081-.11c.123-.167.234-.33.342-.496l-4.955-3.572 5.572 2.502a9.175 9.175 0 0 0 .314-.669l3.418 2.565-.772-1.354c-.109-.064-.225-.221-.145-.314.014-.12.204-.151.328-.117l1.856-.353-1.187-.597-3.499.169c.05-.121.099-.241.146-.362.077-.193.142-.38.202-.567l-4.933-1.962 5.252.768a10.216 10.216 0 0 0 .163-.978l2.947 1.895 1.326.076-1.434-1.233c-.123-.033-.274-.155-.226-.265-.022-.121.155-.2.284-.2l1.346-.787-4.244.514c.005-.046.012-.09.016-.136.024-.206.038-.403.049-.6l-6.079-.618 6.079-.618a9.224 9.224 0 0 0-.049-.601c-.004-.044-.011-.088-.016-.134l4.244.514-1.346-.787c-.129 0-.307-.08-.284-.2-.049-.11.103-.233.226-.265l1.432-1.233-1.326.076-2.945 1.895c-.017-.13-.033-.258-.055-.386a8.136 8.136 0 0 0-.108-.594l-5.253.768 4.933-1.961a10.468 10.468 0 0 0-.347-.929l3.499.169 1.187-.597-1.856-.353c-.124.034-.316.003-.33-.116-.079-.093.033-.252.145-.314l.75-1.354-3.42 2.563c-.019-.041-.034-.083-.054-.124a8.884 8.884 0 0 0-.259-.545l-5.573 2.502 4.955-3.572a8.028 8.028 0 0 0-.342-.496l-.08-.108 3.93-1.677-1.558-.009c-.111.064-.304.084-.345-.031-.098-.071-.029-.253.061-.343l.625-1.784-1.109.729-1.604 3.114c-.08-.105-.158-.208-.24-.308a8.299 8.299 0 0 0-.391-.459l-4.166 3.29 3.291-4.163a8.184 8.184 0 0 0-.459-.392 9.43 9.43 0 0 0-.31-.24l3.118-1.602.727-1.109-1.781.623c-.092.09-.273.16-.346.063-.115-.04-.096-.233-.029-.345l-.01-1.558-1.679 3.929-.108-.08a8.332 8.332 0 0 0-.496-.343l-3.573 4.952 2.503-5.568a9.414 9.414 0 0 0-.667-.313l2.565-3.418-1.355.772c-.064.111-.222.226-.314.145-.121-.012-.151-.203-.117-.326l-.352-1.857-.598 1.186.171 3.499-.363-.148c-.194-.076-.38-.14-.567-.201l-1.963 4.932.768-5.252a9.918 9.918 0 0 0-.98-.161l1.896-2.945.075-1.325-1.231 1.43c-.034.125-.155.274-.266.226-.119.021-.196-.157-.196-.284l-.788-1.346.513 4.242a9.98 9.98 0 0 0-.736-.064l-.619 6.077zm-5.45-8.308v.001zm0 .001v-.001z" fill="#ffffff"/>
    <path d="M91.681 32.3l.559 6.555a4.135 4.135 0 0 1 1.935.815l3.165-2.373-2.376 3.168c.416.554.699 1.213.797 1.933l6.566.56-6.566.562a4.144 4.144 0 0 1-.795 1.935l2.379 3.187-3.167-2.392a4.152 4.152 0 0 1-1.938.818l-.559 6.549-.557-6.54a4.144 4.144 0 0 1-1.975-.798L86.061 48.6l2.301-3.101a4.11 4.11 0 0 1-.83-1.985l-6.494-.556 6.495-.554c.099-.74.394-1.419.831-1.984l-2.354-3.088 3.146 2.31a4.144 4.144 0 0 1 1.97-.798l.558-6.544z" fill="#000000"/>
  </g>
  <g fill="#ffffff" transform="translate(-5 -12.5)"/>
  <use height="150" transform="translate(56.1 -12.5)" width="450" xlink:href="#c"/>
  <use height="150" transform="translate(99.4 -12.5)" width="450" xlink:href="#d"/>
  <use height="150" transform="rotate(180 269 89)" width="450" xlink:href="#e"/>
  <use height="150" transform="translate(59.5 -12.5)" width="450" xlink:href="#f"/>
</svg>
