<svg xmlns="http://www.w3.org/2000/svg"
     viewBox="75 12 112 112"
     width="112"
     height="112">
  <path
    fill="#ffffff"
    d="M178.357 96.382a54.964 54.964 0 0 0 7.861-28.404c0-30.497-24.724-55.219-55.22-55.219-30.497 0-55.219 24.723-55.219 55.219a54.953 54.953 0 0 0 7.863 28.404l-.201.161.24-.093c9.665 16.026 27.238 26.747 47.317 26.747 20.08 0 37.651-10.721 47.315-26.747l.24.093-.196-.161zm1.077-28.404a48.168 48.168 0 0 1-6.428 24.094l-34.16-27.513-7.006-44.992c26.359.45 47.594 21.944 47.594 48.411zm-96.866 0c0-26.466 21.233-47.96 47.592-48.411l-7.006 44.992-34.16 27.513a48.183 48.183 0 0 1-6.426-24.094zM131 116.41c-17.186 0-32.271-8.96-40.867-22.455L131 78.145l40.867 15.811C163.27 107.45 148.188 116.41 131 116.41z"/>
</svg>
