<?xml version="1.0" encoding="UTF-8"?>
<svg version="1.1" xmlns="http://www.w3.org/2000/svg" width="304" height="284">
<path d="M0 0 C3.44188176 2.89420236 6.75375612 5.88876059 10 9 C10.845625 9.804375 11.69125 10.60875 12.5625 11.4375 C13.7690625 12.7059375 13.7690625 12.7059375 15 14 C15.65355469 14.6703125 16.30710938 15.340625 16.98046875 16.03125 C38.30019605 38.63529823 49.05292205 69.78300275 48.25 100.69921875 C47.07656158 125.87534014 39.06540011 151.32299831 23 171 C22.31421875 171.8971875 21.6284375 172.794375 20.921875 173.71875 C12.8211396 184.09235361 3.20953858 193.05577316 -8 200 C-8.93126709 200.57814453 -8.93126709 200.57814453 -9.88134766 201.16796875 C-20.42481453 207.61657234 -30.89211504 212.2719396 -42.84667969 215.43017578 C-44.73245381 215.92920036 -46.6058476 216.47453699 -48.4765625 217.02734375 C-66.10397597 221.50644061 -88.57300904 220.93358302 -106 216 C-106.68852051 215.81195801 -107.37704102 215.62391602 -108.08642578 215.43017578 C-138.79686529 206.8574415 -165.92883741 186.76941465 -182.10058594 159.11816406 C-187.82267721 148.92196704 -191.76679722 138.21000963 -195 127 C-195.34160156 125.87207031 -195.68320313 124.74414062 -196.03515625 123.58203125 C-200.85728625 104.45051083 -199.8055012 81.80893415 -194 63 C-193.79101074 62.31873047 -193.58202148 61.63746094 -193.36669922 60.93554688 C-188.6238913 46.0569854 -181.44995247 31.66271291 -171 20 C-170.30261719 19.18402344 -169.60523438 18.36804687 -168.88671875 17.52734375 C-126.67719759 -30.97986795 -51.34737441 -40.16414811 0 0 Z M-137.9140625 40.53515625 C-154.71416599 60.38696393 -160.89886277 82.32516498 -159 108 C-157.02629046 126.31719048 -147.85135176 143.08646428 -135 156 C-134.20078125 156.83402344 -133.4015625 157.66804687 -132.578125 158.52734375 C-116.81820944 174.02459405 -95.75005136 180.52449624 -74 181 C-54.53302381 180.54680912 -35.75850169 173.75357316 -21 161 C-20.27554688 160.43023437 -19.55109375 159.86046875 -18.8046875 159.2734375 C-3.50775484 146.74807452 5.78745694 127.25490408 8.75 107.9375 C10.20389609 85.03863665 5.75617685 63.38444774 -9.19921875 45.34765625 C-11.4155812 42.84531155 -13.69111503 40.41685442 -16 38 C-16.55171875 37.37351562 -17.1034375 36.74703125 -17.671875 36.1015625 C-30.33883118 22.24315995 -51.04030264 14.56822196 -69.43359375 13.68359375 C-95.60326764 12.91760961 -119.67280911 21.24282692 -137.9140625 40.53515625 Z " fill="#000000" transform="translate(237,43)"/>
<path d="M0 0 C9.68768173 11.81959874 15.14771977 24.56954529 14 40 C11.94487156 54.0375722 5.81532983 66.23443531 -5.5703125 74.97265625 C-18.44350295 83.60979685 -31.92081286 86.80276658 -47.3125 83.875 C-62.24821417 80.11167045 -73.25835597 71.20630895 -81.1796875 58.0390625 C-87.34248698 46.65812623 -87.8657184 32.53202891 -84.4375 20.1875 C-79.23100186 5.39297888 -69.88221685 -4.14765255 -56 -11 C-52.70583901 -12.3157436 -49.46799568 -13.26594091 -46 -14 C-45.3090625 -14.15339844 -44.618125 -14.30679688 -43.90625 -14.46484375 C-27.95873764 -17.11284487 -11.64253971 -10.80517862 0 0 Z " fill="#000000" transform="translate(198,105)"/>
</svg>
