<svg xmlns="http://www.w3.org/2000/svg" xmlns:xlink="http://www.w3.org/1999/xlink" viewBox="179.4386 107.6968 115.22519999999999 19.9662">
  <linearGradient id="a">
    <stop offset=".253" stop-color="#acacac"/>
    <stop offset=".657" stop-color="#e7e7e7"/>
    <stop offset=".753" stop-color="#b8b8b8"/>
  </linearGradient>
  <linearGradient id="b" gradientUnits="userSpaceOnUse" x1="22.4" x2="294.4" xlink:href="#a" y1="150.65" y2="150.65"/>
  <linearGradient id="c" gradientTransform="matrix(.75 0 0 -.75 -289.389 -1039.24)" gradientUnits="userSpaceOnUse" x1="415.718" x2="778.385" xlink:href="#a" y1="-1586.586" y2="-1586.586"/>
  <linearGradient id="d" gradientUnits="userSpaceOnUse" x1="283.05" x2="283.05" xlink:href="#a" y1="179.321" y2="160.254"/>
  <linearGradient id="e" gradientUnits="userSpaceOnUse" x1="228.5" x2="228.5" xlink:href="#a" y1="179.622" y2="160.349"/>
  <linearGradient id="f" gradientUnits="userSpaceOnUse" x1="183.35" x2="183.35" xlink:href="#a" y1="179.421" y2="160.354"/>
  <linearGradient id="g" gradientUnits="userSpaceOnUse" x1="139.85" x2="139.85" xlink:href="#a" y1="179.521" y2="160.454"/>
  <linearGradient id="h" gradientUnits="userSpaceOnUse" x1="87.15" x2="87.15" xlink:href="#a" y1="179.522" y2="160.147"/>
  <linearGradient id="i" gradientUnits="userSpaceOnUse" x1="33.903" x2="33.903" xlink:href="#a" y1="179.421" y2="160.354"/>
  <linearGradient id="j" gradientTransform="matrix(.75 0 0 -.75 -289.389 -1039.24)" gradientUnits="userSpaceOnUse" x1="597.318" x2="597.318" xlink:href="#a" y1="-1599.519" y2="-1625.488"/>
  <linearGradient id="k" gradientUnits="userSpaceOnUse" x1="123.18" x2="173.98" xlink:href="#a" y1="72.9" y2="72.9"/>
  <linearGradient id="l" gradientUnits="userSpaceOnUse" x1="215.829" x2="253.929" xlink:href="#a" y1="73.1" y2="73.1"/>
  <linearGradient id="m" gradientUnits="userSpaceOnUse" x1="81.6" x2="122.929" xlink:href="#a" y1="73.15" y2="73.15"/>
  <linearGradient id="n" gradientUnits="userSpaceOnUse" x1="22.7" x2="78.1" xlink:href="#a" y1="73.1" y2="73.1"/>
  <linearGradient id="o" gradientUnits="userSpaceOnUse" x1="170.5" x2="212.8" xlink:href="#a" y1="73.25" y2="73.25"/>
  <linearGradient id="p" gradientUnits="userSpaceOnUse" x1="252.425" x2="294.725" xlink:href="#a" y1="73.2" y2="73.2"/>
  <path d="m259 118c0 12-9.8 21.8-21.8 21.8s-21.8-9.8-21.8-21.8 9.8-21.8 21.8-21.8c12.1 0 21.8 9.7 21.8 21.8z" fill="#fcd700"/>
  <path d="m221.3 125.1-.2.1c-.4.3-.7.7-1 1-.2-.4-.3-.6-.5-.8.5-.1.9-.2 1.3-.4zm15.2 2.9-.7-.3c-.6-.4-1-1-1.3-1.7l-.6-.9c-.2-.3-.5-.5-.8-.8l-.1-.1c-.8-2.1-1.4-4.4-1.6-6.6-.1-.8-.4-1.6-.8-2.3-1.2-1.7-2.5-3.4-3.9-5l-.4-.4-4.6-3.8-.1-.1c-.6-.5-1.3-.9-2.1-1.1-1.3-.4-2.7-.4-4 .1h-.1c-.4.2-.8.4-1.1.7-.5.3-1 .6-1.6.9h-.1c-.5.2-1 .4-1.5.5-1.2.3-2.4.9-3.4 1.7l-.6.6c-.2.2-.5.4-.6.5h-.2c-1.6-.1-3.1.5-4.3 1.5-.7.7-1.5 1.3-2.4 1.7-.4.1-.8.2-1.2.2-.6 0-1.1.1-1.7.3-1.3.4-2.5 1.2-3.6 2.1-.5.4-.8.6-.9.7l-.3.2c-1 .7-2.1 1.1-3.3 1.2h-.1c-.6-.1-1.2-.5-1.4-1.1-.2-.8.1-1.6.6-2.1.4-.4.9-.8 1.3-1.2.8-.6 1.5-1.3 2.1-2.1.9-1.3.8-2.9-.2-4.1-.9-.8-2-1.3-3.1-1.5h-.4l-.4-.1c-.2 0-.4-.1-.6-.1-.4-.1-.8-.4-1.1-.6l-.9-.6-.9-.5-.5.8c-.4.6-.6 1.4-.5 2.1v.1c.3 1.6 1.3 2.9 2.8 3.6l.1.1c.3.1.6.2.9.2-.8.6-1.5 1.4-2.1 2.2-1.2 1.5-1.4 3.5-.8 5.3.8 1.9 2.5 3.1 4.5 3.4.3 0 .6.1.9.1.5 0 1-.1 1.5-.2 0 .8.1 1.2.1 1.5.1.6.3 1.2.6 1.8-.4.2-.8.4-1.2.5-.3 0-.6.1-.9.1h-.4c-.3 0-.7.2-.9.4-.4.4-.6 1-.8 1.5-.1.3-.2.6-.3.8-.1.1-.2.3-.4.4-.2-.3-.4-.5-.7-.8-.5-.4-1.2-.4-1.7 0l-.2.2h-.1c-.4.2-.8.5-1.1.8-.3.2-.5.6-.5.9-.1 0-.2 0-.3.1-.7.3-1.3 1-1.4 1.7 0 .3-.1.8-.1.9l-.1.1c-.5.5-.5 1.3 0 1.9.6.4 1.3.7 2.1.8h.3c.1 0 .2-.1.2-.1h.3c.2 0 .4.1.6.1.4.1.8.2 1.3.2s.9-.1 1.3-.3c.6-.3 1.1-.8 1.3-1.4.1-.1.1-.3.2-.4h.1c.2.1.5.1.7.1 1 0 1.9-.4 2.7-1 .2-.2.4-.3.6-.5s.4-.3.6-.5c.2-.1.5-.1.7-.1.5 0 1 .1 1.5.2 1 .3 2 .1 2.9-.3.4-.2.9-.5 1.2-.7h.1c.2-.1.4-.2.5-.3.8-.5 1.4-1.3 1.8-2.2.2-.4.5-1.1.5-1.3h.2c.5 0 1.1-.1 1.6-.2.3-.1.6-.1.9-.1h.3c.5 0 1.2.1 1.8.1s.8.1 1.4.1h.9c.5 0 1-.1 1.5-.3.1.1.3.4.4.5h-.1c-.4 0-.7.1-1 .4-.5-.2-.9-.2-1.4-.1-.6.1-1.2.1-1.8.3-.4.1-.8.3-1 .8-.2.4-.2.9.1 1.4.3.6.6 1.1.9 1.6l.1.2c.3.4.8.7 1.3.7h.3s0 .1.1.1c.3.5.6 1 1 1.3.8.7 1.9.9 2.9.5 1.4-.4 2.8-.9 4.1-1.6h.5c.7 0 1.4-.3 2-.8l.1-.1v-.1c.2-.4.5-.7.7-1.1v.1c.3.8 1.2 1.4 2.1 1.3.8-.1 1.6-.3 2.4-.6l.3-.1h.1c.7-.2 1.5-.3 2.2-.1h.2c.9-.1 1.7-.5 2.3-1 1.1 1.2 2.8 1.9 4.4 1.9h.6c.6-.1 1-.6 1-1.1v-.3l.3-.1c.5-.1 1-.5 1-1.1 1.2-.3.9-.8.4-1.1zm18.6-1.6-.1-.1c0-.1-.1-.1-.1-.2-.2-.2-.3-.5-.4-.8.4 0 .8.1 1.2.1zm39.3 6.2c0-.1-.1-.1-.1-.2 0 0 0-.2-.1-.4 0-.4-.1-.7-.2-1-.2-.5-.7-.9-1.3-1.1 0-.2-.1-.4-.2-.5-.4-.5-.8-.9-1.3-1.2-.1-.1-.2-.1-.3-.2l-.1-.1c-.3-.2-.6-.3-.9-.3-.6.1-1.1.3-1.5.8-.1-.2-.2-.6-.2-.8-.1-.2-.2-.6-.2-.8-.1-.2 0-.1 0-.1-.2-.8-.8-1.3-1.6-1.5-.3 0-.5-.1-.8-.1s-.5 0-.8-.1c0 0 0-.1.1-.2.1-.2.2-.4.2-.6.3-.9.3-1.8.2-2.7.3 0 .5.1.8.1.9 0 1.7-.2 2.6-.5 1.8-.8 3-2.6 3-4.6v-.1c-.2-1.9-1.2-3.6-3.2-5.4.5-.1 1-.3 1.5-.6 1.4-.9 2-2.6 1.7-4.6v-.1c-.1-1-1.3-1.4-2-.8l-.1.1c-.1.1-.2.2-.4.3-.4.2-.8.3-1.2.4s-.8.2-1.1.3c-1.7.6-2.8 1.5-3.3 2.8-.2.8-.1 1.8.3 2.5v.1c.5.8 1.2 1.4 1.8 2 .9.9 1.8 1.8 2 2.8 0 .2.1.5-.5 1-.3.1-.6.2-1 .2-.6 0-1.2-.1-1.7-.4-.8-.4-1.6-.9-2.3-1.4-1.2-.9-2.5-1.6-4-2.1-.6-.3-1.3-.4-2-.6-.7-.1-1.5-.3-2.1-.8l-.1-.1-.7-.5c-.7-.6-1.6-1-2.5-1.3-.3-.1-.7-.2-1-.2s-.5-.1-.8-.2l-.5-.3c-.6-.5-1.3-.9-2.1-1.3-1.2-.6-2.5-1-3.8-1.2-.1-.1-.3-.2-.4-.4-.2-.3-.5-.6-.8-.8-1-.9-2.4-1.5-3.8-1.5h-.4c-.8.1-1.6.5-2.2 1.1-1.1 1-2.4 1.9-3.6 2.8-2 1.3-3.8 2.9-5.5 4.6-1.8 1.8-2.4 4.1-3 6.1l-.3.9c-.1.5-.3 1.1-.4 1.7-.7 2.8-1.4 5.4-3.9 7.1-.4.3-.6.7-.6 1.2.1.5.4.9.8 1.1.3.1.7.2 1 .2 0 .3.1.5.3.8.3.3.7.5 1.1.5 1.8 0 3.1-1 4.2-2.1.4.4.9.7 1.5.8h.4c.6-.1 1.2-.1 1.8-.1.5.2 1.1.4 1.6.6.4.2.8.3 1.3.5l.2.1h.2c.9-.1 1.7-.7 2.1-1.5l.1-.1v-.1c0-.1.1-.2.1-.3l.1.2c.1.5.3 1 .7 1.5.3.4.8.6 1.3.6h.6l.1.1c.3.3.6.6 1 .7.5.2 1 .3 1.4.4.6.1 1.1.3 1.7.5h.1c.4.2.9.3 1.4.3.6 0 1.2-.2 1.6-.6.5-.4.9-1 1.1-1.6.1 0 .2-.1.4-.1.8-.3 1.6-1.7 1.6-1.7.1-.1.1-.2.2-.3.2-.3.3-.6.3-.9 0-.8-.6-1.4-1.4-1.4h-2.2c-.2 0-.3 0-.5.1-.1-.1-.2-.5-.4-.5h1.3c.9 0 1.8-.1 2.7-.3.7-.1 1.5-.1 2.2-.1h.3c.3 0 .6 0 1 .1s.8.1 1.1.1h.4c.4 0 .7-.1 1.1-.2 0 .2.1.4.1.7l.1.2c.2 1.3.9 2.5 2 3.2l.2.1c.6.5 1.4.8 2.1.9h1.1c1.4-.3 2.8.1 4 .9l.1.1c.1.1.2.2.4.3.3.3.7.5 1.1.7.3.1.6.2 1 .2s.9-.1 1.2-.3l.1.2c.2.3.5.6.8.9.5.5 1.2.7 2 .7h1.3c.1 0 .2 0 .3-.1.2.1.4.2.7.2.1 0 .2 0 .3-.1l1.2-.4c.4-.1.6-.4.8-.7.2-1.1.2-1.7-.1-2.2z" fill="#fcd700"/>
  <path d="m257.7 110.9-.5.5c-.7.6-1.3 1.2-1.8 1.9-.2.3-.4.6-.5.9l-.1.1s-.1 0-.1-.1c-.1-.5 0-1 .1-1.4.5-1.1 1.3-2.1 2.3-2.8.1-.1.2-.1.4-.1s.4.1.4.2c.1.3 0 .6-.2.8zm-7.7 10.8c-.1.1-.3.2-.4.2-.2-.1-.3-.2-.4-.4s-.2-.3-.4-.3-.4.1-.5.3c-.1.1-.4.3-.5.4-.5.3-.9.8-1.1 1.3 0 .1-.1.2-.1.3 0 .2-.1.4-.2.5h-.1c-.1 0-.1 0-.2-.1-.1 0-.1-.1-.1-.2-.1-.9.2-1.8.9-2.4.4-.4.8-.8 1.1-1.2.2-.2.3-.4.5-.6s.3 0 .7.4c.3.5.6.9.8 1.5.1 0 .1.2 0 .3zm-.4 6.5c-.1.1-.3.2-.5.2s-.4 0-.5-.1c-.3-.2-.5-.6-.5-1 0-.1 0-.3.1-.3s.1-.1.2 0c.4 0 .7.2 1 .5 0-.2.4.3.2.7zm41 3.7c-.8 0-1.2-.6-1.6-1.1-.1-.2-.3-.4-.4-.5-.2-.2-.4-.5-.7-.7-.2-.2-.4-.4-.5-.6-.1-.3-.2-.7-.3-1s-.1-.5-.2-.8v-.1c-.1-.3-.3-.8-.8-.8-.2 0-.5-.1-.7-.1-.6.1-1.2-.2-1.6-.6-.2-.4-.2-.9 0-1.2.1-.2.1-.3.2-.5.2-.8.3-1.6.1-2.4 0-.1-.1-.2-.1-.3-.1-.3-.2-.6-.1-.8 0-.1.2-.2.3-.2s.2 0 .4.1c.1 0 .2 0 .2.1.4.1.8.2 1.2.2.7 0 1.5-.2 2.1-.4 1.4-.6 2.4-2.1 2.4-3.6-.2-1.7-1.2-3.3-3.2-5l-.2-.1c-.3-.2-.6-.5-.6-.8s.6-.4 1-.5l.2-.1h.1c.5-.1 1-.3 1.4-.6 1.4-1 1.4-2.6 1.2-3.6v-.1c0-.1-.1-.3-.2-.3h-.1l-.1.1c-.2.2-.4.3-.6.4-.5.2-1 .4-1.5.5-.3.1-.7.2-1 .3-1.4.5-2.3 1.2-2.6 2.1-.2.6-.1 1.2.2 1.7.5.7 1.1 1.4 1.8 2 1 1 2.1 2 2.3 3.4.1.8-.3 1.6-1 2.1-.5.3-1 .4-1.6.4-.8 0-1.5-.2-2.2-.5-.8-.4-1.6-.9-2.4-1.5-1.1-.8-2.4-1.5-3.7-2-.6-.2-1.2-.4-1.8-.5-.9-.1-1.8-.4-2.5-.9-.2-.2-.5-.3-.8-.5-.6-.5-1.3-.9-2.1-1.1-.3-.1-.6-.1-.9-.2-.4 0-.8-.2-1.2-.4l-.5-.4c-.6-.5-1.3-.9-1.9-1.2a15 15 0 0 0 -3.6-1.1c-.4-.1-.7-.4-1-.8l-.6-.6c-.8-.8-1.9-1.3-3.1-1.3h-.3c-.6.1-1.2.4-1.6.9-1.2 1-2.4 1.9-3.7 2.8-1.9 1.3-3.7 2.8-5.3 4.5-1.6 1.6-2.2 3.7-2.7 5.7l-.2.9c-.2.5-.3 1.1-.4 1.6-.8 2.9-1.5 5.8-4.4 7.7-.2.1-.1.4.1.4.9.3 1.9 0 2.5-.8.8-.9 1.1-1.8 2-2.7 0 0 .1-.1.2-.1s.1.1.1.2c-.1.4-.3.7-.6 1-.2.3-.4.7-.6 1.1-.4.8-1 1.6-1.8 2.1-.1 0-.1.1-.2.1l-.1.1c0 .2.1.3.4.3 1.6 0 2.8-1.2 3.9-2.2.1 0 .1-.1.2-.1h.2c.1.1.3.2.4.3.3.4.8.6 1.2.8.6-.1 1.1-.1 1.7-.2h.5l1.8.6c.4.2.8.3 1.3.5.5 0 .9-.5 1.2-1 .1-.3.1-.6 0-.9 0-.2-.1-.4-.1-.5h.8c.2 0 .3-.2.3-.4-.1-.5-.4-.9-.7-1.3-.2-.3-.4-.7-.6-1.1-.2-.5-.5-.9-.9-1.3s-.8-.9-.9-1.5v-.2h.2c.2.1.4.3.6.5.6.6 1.3 1 2 1.1.8.1 1.5.1 2.3.1.2 0 .3-.2.3-.4-.3-.7-.6-1.4-.8-2.1-.3-1-.4-2.2-.2-3.2 0-.1.1-.1.2-.1.1.1.2.2.2.3v.1c.1 1.6.2 3 1.2 4.3.3.4.6.6 1 .8.3.1.5.3.7.5.2.3.2.6.1 1l-1.2 1.7c-.3.4-.5.8-.6 1.3-.1.4-.1.8 0 1.3v.1l-.1-.1c-.4-.6-.6-1.4-.3-2.1.2-.4 1.1-1.7 1.4-2.2.1-.1.2-.3.1-.4-.3-.2-.6-.4-1-.4-.2.1-.3.2-.4.3 0 0 0 .1-.1.1l-1.4 2.6v.1c-.1.2-.1.5-.1.8.1.4.2.8.3 1.1l.1.3c.1.4.2.8.4 1.1.1.1.3.2.5.2h.8c.2.1.4.2.5.4s.3.3.6.4c.5.2.9.3 1.4.4.6.1 1.2.3 1.8.6.3.1.7.2 1 .2.4 0 .7-.1 1-.4.4-.3.7-.8.8-1.3s.3-.5.6-.5c.1 0 .2 0 .4-.1.4-.3.7-.8 1-1.2.1-.1.1-.3.2-.4s.1-.2.1-.3c0-.2-.2-.4-.4-.3h-2.1c-.6 0-.9.6-1.1 1.2l-.3.6c-.2.3-.5.5-.9.5-.2 0-.3-.1-.5-.1-.8-.2-1.7-.4-2-1.2-.1-.2 0-.5.1-.7.5-.6 1-1.2 1.6-1.6.9-.2 1.7-.8 2.1-1.6.1-.1.2-.3.2-.4.1-.2.2-.5.4-.6.1-.1.2 0 .3.1 0 .4 0 .9-.2 1.3 0 .1-.1.2-.1.3v.1h.8c.8 0 1.7-.1 2.5-.3s1.6-.3 2.4-.3h.3c.4 0 .8 0 1.1.1s.7.1 1.1.1h.4c.9.1 1.7-.5 2.1-1.3.2-1.1.2-2.3-.1-3.4v-.1c0-.1 0-.1.1-.2s.2 0 .3.1c.4 1.1.6 2.2.8 3.4.2.9.5 1.8 1 2.7.8 1.1 2.1 1.8 3.5 1.8.3 0 .7 0 1-.1h.5c1.8 0 3.5.8 4.6 2.2v.1s-.1.1-.2.1l-.2-.1c-1-.9-2.1-1.5-3.4-1.8-.2 0-.5-.1-.8-.1-.4 0-.8 0-1.1.1-.4 0-.7.1-1.1.1s-.8-.1-1.2-.2c-1.5-.5-2.8-2.3-3.2-3.4 0-.1-.1-.1-.2-.1h-.1c-.2.1-.2.2-.2.3 0 .4.1.8.2 1.2.1 1.1.7 2 1.6 2.6.6.5 1.3.8 2 .9h.7c.4-.1.8-.1 1.2-.1 1.3 0 2.6.4 3.6 1.2.2.1.4.2.5.4.2.2.5.4.8.5.2.1.4.1.6.1.3 0 .7-.1 1-.3.1-.1.3-.1.4-.1.4 0 .6.3.9.7.2.3.4.5.6.8.3.3.8.4 1.2.4h1.4c-.3-1.6-.5-2.3-.9-3zm-27.8-3.7h-1.7c-.2.4-.4.8-.4 1.3.1.5.6.6 1 .7.2 0 .3.1.5.1s.5-.1.6-.3c.2-.5.3-1 .4-1.6v-.1c-.1-.1-.2-.1-.3-.1zm28.8 1.8c-.3-.4-.6-.6-1-.9-.1-.1-.3-.2-.4-.3l-.1-.1c-.1-.1-.2-.1-.3-.1-.4 0-.7.3-.8.6 0 .2.3.7.8 1.2l.1.1c.2.2.4.4.7.4.2 0 .5-.1.7-.3.1 0 .5-.4.3-.6zm1.8 3c-.1-.1-.1-.2-.2-.4 0-.2-.1-.4-.1-.5 0-.3-.1-.5-.2-.8s-.4-.4-.7-.4c-.1 0-.2 0-.3.1-.4.2-.7.4-.6.9.2.6.4 1.3.5 1.9 0 .1.1.5.3.5l1.2-.4c.1 0 .1-.1.1-.1.3-.2.2-.5 0-.8zm-82-4.1c.1.2.2.4.3.7.2.4.3.7.5.8h.2c.5 0 1-.2 1.3-.5.2-.2.1-.3.1-.5 0-.1-.1-.1-.1-.2-.1-.2-.2-.4-.2-.6-.1-.4-.2-.7-.6-.7-.6.1-1.2.1-1.8.1 0 0-.2 0-.3.1s.1.3.3.5c.1 0 .2.1.3.3zm18-6.1c0 .2-.1.3-.1.5-.1.1-.2.2-.3.2-.2 0-.2-.3-.2-.3 0-.4-.1-.7-.2-1.1-.2-.3-.9-1.3-1.3-1.3-.2.1-.5.2-.6.5-.3.3-.3.4-.3.4-.1.1-.2 0-.2-.2-.1-.2-.1-.5 0-.8s.2-.5.3-.8c0 0 .2-.5.3-.7s.3-.3.5-.3c.3 0 .5.1.6.3s.3.3.4.5.3.4.5.6c.3.4.5.8.7 1.2 0 .6 0 .9-.1 1.3zm-2 4.7c0 .2-.1.3-.2.5-.3.2-.7.2-1 .2s-.4-.1-.5-.1c-.1-.1 0-.3 0-.3.2-.5.6-.8 1.1-1 .1-.1.3-.1.4 0 .2.1.1.7.2.7zm-7.7-12.1c0 .1-.1.1-.1.1-.1 0-.1 0-.1-.1-.1-.8-.3-1.6-.7-2.4-.1-.2-.2-.3-.3-.5-.2-.3-.4-.5-.2-.8.1-.1.2-.2.4-.2h.2c.3.2.6.5.7.9.3 1 .4 2 .1 3zm16.3 13.6-.7-.3c-.7-.5-1.3-1.2-1.7-2l-.6-.9-.6-.6c-.1-.1-.3-.2-.4-.4-.9-2.3-1.5-4.7-1.8-7.1-.1-.7-.3-1.3-.7-1.9-1.1-1.7-2.4-3.3-3.8-4.8l-.3-.3-.1-.1-4.6-3.8c-.6-.4-1.2-.8-1.8-1-.5-.2-.9-.2-1.4-.2-.6 0-1.2.1-1.8.4-.4.2-.8.4-1.1.6-.6.4-1.2.7-1.8 1-.5.2-1.1.4-1.6.6-1.1.2-2.1.7-2.9 1.4l-.6.6c-.8.8-.9.8-1.5.8-1.3-.1-2.6.4-3.6 1.3-.8.8-1.7 1.4-2.7 1.9l-1.5.3c-.5 0-1.1.1-1.6.2-1.2.4-2.3 1.1-3.2 1.9-.3.2-.8.6-.9.7l-.3.2c-1.1.8-2.4 1.3-3.8 1.4h-.1c-1.1-.1-2-.8-2.4-1.8-.3-1.1 0-2.3.9-3.1.4-.4.9-.8 1.4-1.2.7-.6 1.4-1.2 2-1.9.6-.8.5-2-.1-2.8-.8-.6-1.6-1-2.6-1.2h-.3c-.3-.1-.7-.1-1-.2-.8-.3-1.6-.8-2.2-1.3-.3.4-.4 1-.4 1.5.2 1.2 1 2.2 2.1 2.8l.1.1c.3.1.7.2 1 .2h.4c.2 0 .4 0 .7.1.2.1.4.3.4.5 0 .1 0 .3-.2.4l-.5.4c-.9.7-1.8 1.5-2.6 2.4-.9 1.2-1.1 2.8-.6 4.2.6 1.5 2 2.5 3.7 2.7.2 0 .5.1.8.1.8 0 1.6-.2 2.3-.4h.1s.1 0 .1.2c0 .3 0 .8.1 1.1 0 .6.1 1.2.1 1.4.1.6.3 1.1.5 1.6.1.2.1.3.2.4.1.2 0 .5-.2.7-.6.5-1.2.8-1.9 1-.3 0-.8.1-1 .1h-.3c-.1 0-.2.1-.3.2-.2.4-.4.7-.5 1.1-.1.3-.3.7-.4.9-.4.6-.9 1-1.6 1.3l-.4.3c-.2.4-.5.7-.8 1-.2.2-.5.3-.8.3-.4.6-.7 1.2-.8 1.9l-.1.3v.1h.1c.3 0 .5.1.8.1.3.1.7.1 1 .1s.6-.1.9-.2c.4-.2.7-.6.9-1 .1-.3.3-.5.5-.8.1-.1.3-.2.5-.2s.4 0 .5.1c.2.1.3.1.5.1.7 0 1.4-.3 2-.8.2-.1.3-.3.5-.4.2-.2.5-.4.8-.6.4-.2.8-.2 1.2-.2.6 0 1.2.1 1.8.2.3.1.6.1.8.1.5 0 .9-.1 1.3-.3.5-.3.9-.5 1.3-.7l.5-.3c.6-.5 1.1-1.1 1.4-1.8.2-.4.5-1.2.5-1.2l-.8-.6v.1c-.3.4-.5.8-.8 1.2-1.3 1.8-3.5 2.1-5.2 2.1h-.4c-2-.1-3.9.7-5.2 2.2-.1.1-.2.1-.2 0v-.2c0-.1.1-.2.1-.4 1.4-1.9 3.7-2.2 5.5-2.2 1.1 0 2.2-.3 3.2-.7 1.1-.6 1.9-1.6 2.2-2.8.2-.7.3-1.3.4-2 .1-.5.2-1.1.3-1.6 0-.1.1-.1.1-.1h.1c.1 0 .2.1.2.2-.3 1.2-.3 2.5 0 3.8.3.5.9.8 1.5.8.5 0 1-.1 1.4-.2.3-.1.7-.1 1-.1h.4c.6 0 1.2.1 1.8.2.5.1 1 .2 1.5.2h.9c.3 0 .7-.1 1-.3.2-.1.1-.3 0-.6v-.1c-.1-.3-.3-.8 0-1.1h.1c.1 0 .1 0 .1.1s.1.2.1.3c.1.4.3.8.5 1.2.7.8 1.5 1.4 2.4 1.9.8.5 1.4 1.3 1.5 2.3 0 .5-.5.8-.8 1-.6.3-1.3.5-1.9.6-.2 0-.5-.1-.7-.3-.5-.5-.5-.7-.8-1.2l-.6-.9c-.3-.4-.8-.5-1.3-.5-.6.1-1.1.1-1.6.3-.1 0-.2.1-.3.2s-.1.3 0 .4c.3.5.6 1.1.9 1.6l.1.2c.1.1.2.2.4.2h.5c.2 0 .4 0 .6.2.1.1.2.3.3.5.2.4.4.7.8 1s.8.5 1.3.5c.2 0 .4 0 .6-.1 1.4-.4 2.8-.9 4.1-1.6h.7c.5 0 .9-.1 1.3-.4.4-.6.8-1.2 1.1-1.9.3-.5.3-1.1 0-1.6-.6-.8-1-1.7-1.3-2.6l-.3-.1c-.2-.1-.4-.2-.7-.2-.2 0-.4.1-.6.3l1.5 3c.1.3.2.5.2.8-.2.6-.6 1.2-1 1.7l-.1.1s-.1 0 0-.2c.2-.7.3-1.3.3-2-.4-.9-.9-1.8-1.4-2.6-.2-.3-.4-.7-.4-1.1 0-.2.1-.3.3-.4s.4-.1.7-.2c.5-.1 1.1-.2 1.3-.5.6-1 1-2.1 1.2-3.3 0-.1.1-.2.1-.2.1 0 .1 0 .1.1.2 1.3-.1 2.6-.8 3.7-.1.1-.1.2-.1.3s.1.1.1.2c.7.2 1.5 0 2.1-.3.6 0 1.1-.1 1.7-.2l.5-.1.1.1c-.5.5-.8 1.1-.9 1.8l-.4.4c-.5.4-.9 1-1.1 1.6 0 .1.1.2.2.3.1 0 .2 0 .3-.1.1 0 .2-.1.3-.1s.1.1.1.2l-.6.8c-.2.3-.2.7 0 1.1.1.2 0 .4.1.5.2.4.6.6 1 .6.7-.1 1.4-.2 2.1-.5l.4-.1c.9-.3 1.9-.4 2.8-.2.9-.2 1.7-.6 2.2-1.3.3 0 .7.2.9.5.9 1 2.3 1.6 3.7 1.6h.3c.2 0 .2-.1.2-.2s-.1-.2-.2-.3l-.8-.4c-.7-.3-1.3-.9-1.6-1.6-.2-.7-.5-1.3-.9-2l-.2-.3c-.1-.2-.2-.3-.3-.5.9.3 1.4 1 2.1 2.1.6 1 1.6 1.7 2.8 1.8.1 0 .3 0 .4-.1.1 0 .3-.1.3-.2-.1-.9-.2-1-.3-1zm-52.5 1.8c.1.1.3.2.4.2s.2 0 .4-.1c.6-.4 1-.9 1.3-1.6.1-.2-.2-.4-.4-.6-.1-.1-.3-.1-.5 0l-.3.2c-.4.2-.7.5-1 .8-.1.1-.2.3-.2.5 0 .1 0 .2.1.3 0 .1.1.2.2.3zm-1.2 0c-.4.2-.7.5-.8.8-.1 1.1-.1 1.3-.4 1.6-.1.1-.1.3-.1.4.4.2.9.3 1.3.4.1 0 .2-.3.4-1.1.1-.4.3-.9.4-1.3 0 0 0-.1-.1-.2 0-.1-.5-.6-.7-.6z" fill="#f00"/>
</svg>
