<?xml version="1.0" encoding="UTF-8"?>
<svg version="1.1" xmlns="http://www.w3.org/2000/svg" width="657" height="255">
<path d="M0 0 C9.67826006 8.04159025 18.1546939 16.53388935 25.93359375 26.4375 C26.84109375 25.7775 27.74859375 25.1175 28.68359375 24.4375 C33.85677543 21.49938464 39.15610152 21.68928004 44.93359375 22.4375 C51.83540472 24.44508357 57.57520965 29.67828626 62.28979492 34.95556641 C64.17647579 36.6564654 65.56107661 37.1550545 67.99609375 37.83203125 C68.78773926 38.06212891 69.57938477 38.29222656 70.39501953 38.52929688 C71.23274902 38.76712891 72.07047852 39.00496094 72.93359375 39.25 C82.41451092 42.09480989 90.31894314 45.83260036 98.37109375 51.625 C102.70369915 54.61674541 106.92120226 55.56130376 112.015625 56.671875 C117.2378942 58.04210895 121.6156264 60.74500255 125.95214844 63.91137695 C131.59467233 67.99831947 136.75121593 69.79382922 143.49609375 71.3125 C157.15791374 74.73138877 168.36546954 80.53867676 180.04418945 88.2746582 C188.58264466 93.91863781 196.49776032 98.43648576 206.93359375 97.4375 C211.02571134 95.92190089 213.98992642 94.43281618 215.93359375 90.4375 C216.88427469 83.42622808 214.81415661 79.21124128 210.93359375 73.4375 C208.57267236 70.69537105 206.01249821 68.21998588 203.37109375 65.75 C192.63881177 55.58423144 192.63881177 55.58423144 191.3671875 49.91015625 C191.37553171 44.76177739 191.8250317 40.9787533 195.2109375 36.9609375 C201.5499904 31.35497235 209.81217958 29.43909601 217.83203125 27.4296875 C220.83272902 26.46976655 222.4905544 25.34242495 224.93359375 23.4375 C225.92359375 23.4375 226.91359375 23.4375 227.93359375 23.4375 C229.77511748 28.96207118 229.75057925 34.34755661 227.30859375 39.6875 C222.54390991 47.96819191 215.72799558 49.89025416 206.93359375 52.4375 C206.93359375 53.0975 206.93359375 53.7575 206.93359375 54.4375 C208.45873468 55.93514185 209.99079634 57.42642898 211.55810547 58.87988281 C220.01731351 66.77002848 227.88561093 75.52776184 228.68359375 87.6875 C228.13792651 94.06760924 225.59015463 99.84521075 220.99609375 104.328125 C212.78081523 110.73853172 203.99313931 112.1331646 193.74609375 111 C192.48796875 110.814375 191.22984375 110.62875 189.93359375 110.4375 C190.09472656 110.95699219 190.25585938 111.47648438 190.421875 112.01171875 C191.76870616 118.39631533 191.91486096 126.25822448 189.87109375 132.5 C188.85037485 135.69825254 188.77026808 137.30546934 189.93359375 140.4375 C193.70855619 142.95414162 196.90260301 143.11906837 201.33984375 143.6796875 C203.93359375 144.4375 203.93359375 144.4375 205.7109375 146.1875 C207.07003103 148.68857947 207.51072132 150.76447069 207.99609375 153.5625 C209.53319851 159.74397507 212.81359132 162.9567135 217.4609375 167.1484375 C219.93359375 169.4375 219.93359375 169.4375 221.9375 172.1015625 C223.7574289 174.61636294 223.7574289 174.61636294 226.5703125 175.41015625 C228.93359375 176.4375 228.93359375 176.4375 230.078125 178.93359375 C230.40876953 180.38958984 230.40876953 180.38958984 230.74609375 181.875 C230.97941406 182.84308594 231.21273437 183.81117188 231.453125 184.80859375 C231.93359375 187.4375 231.93359375 187.4375 231.93359375 190.4375 C229.70551216 190.54603983 227.47589443 190.62333307 225.24609375 190.6875 C224.00472656 190.73390625 222.76335938 190.7803125 221.484375 190.828125 C217.27457284 190.36500045 215.89306377 189.40201171 212.93359375 186.4375 C211.97646484 185.05691406 211.97646484 185.05691406 211 183.6484375 C210.31808594 182.91882813 209.63617187 182.18921875 208.93359375 181.4375 C206.00461388 181.31572132 206.00461388 181.31572132 202.87109375 182.0625 C194.90157414 183.03635385 191.13545764 180.02610646 184.93359375 175.4375 C179.50551056 172.33965454 174.75191988 170.33675756 168.484375 170.296875 C157.18556255 170.08554117 149.80380808 169.5420342 141.05859375 161.9375 C136.4938558 156.56722006 134.59127037 151.4527173 133.93359375 144.4375 C134.38671875 141.625 134.38671875 141.625 134.93359375 139.4375 C136.796875 139.65234375 136.796875 139.65234375 138.93359375 140.4375 C140.1015625 142.44140625 140.1015625 142.44140625 141.12109375 145 C144.56736583 152.40153203 150.27405424 157.81183553 157.89892578 160.89477539 C161.93820803 161.97220813 166.04153054 161.60682145 170.18359375 161.4375 C177.88763285 161.26062668 184.66120759 161.57623331 191.93359375 164.4375 C185.14557715 161.08834644 179.2582329 160.17147893 171.80859375 160.375 C161.93317147 160.60331587 155.16470869 159.52855827 147.72265625 152.53125 C141.50927914 145.25969949 139.05569291 135.76151191 137.30859375 126.5625 C137.17453125 125.87414062 137.04046875 125.18578125 136.90234375 124.4765625 C136.57587152 122.79756245 136.25422822 121.11762464 135.93359375 119.4375 C135.91232422 121.06558594 135.91232422 121.06558594 135.890625 122.7265625 C135.84369793 124.17191613 135.7954507 125.61722731 135.74609375 127.0625 C135.74029297 127.77535156 135.73449219 128.48820313 135.72851562 129.22265625 C135.49414874 134.89954302 133.97856913 137.44776707 129.93359375 141.4375 C127.12956218 142.83951579 124.73164414 142.61949828 121.59765625 142.68359375 C120.30472656 142.71646484 119.01179687 142.74933594 117.6796875 142.78320312 C115.63529992 142.83007492 113.59092178 142.8743685 111.54638672 142.91430664 C103.72193501 143.07447867 96.2426228 143.57205555 88.54638672 145.00317383 C85.02776236 145.58807691 81.74913561 145.63381084 78.18359375 145.5625 C76.9925 145.54445312 75.80140625 145.52640625 74.57421875 145.5078125 C73.7028125 145.48460937 72.83140625 145.46140625 71.93359375 145.4375 C72.26359375 142.7975 72.59359375 140.1575 72.93359375 137.4375 C72.64226562 137.95699219 72.3509375 138.47648438 72.05078125 139.01171875 C68.59901418 144.88406461 65.30746167 148.85824268 58.99609375 151.8125 C54.8949917 153.98859496 51.67871077 156.67229417 48.93359375 160.4375 C48.79404982 163.50746643 49.39145494 164.62429179 51.05859375 167.125 C54.55667684 169.57365816 58.529893 170.21418397 62.68359375 170.875 C65.13880791 170.66137061 65.13880791 170.66137061 66.49609375 168.3125 C66.97046875 167.36375 67.44484375 166.415 67.93359375 165.4375 C71.71137153 159.65972222 71.71137153 159.65972222 72.93359375 158.4375 C75.63014229 158.36430379 78.30050833 158.34507463 80.99609375 158.375 C81.75470703 158.37951172 82.51332031 158.38402344 83.29492188 158.38867188 C85.17451246 158.4004932 87.05406274 158.41842922 88.93359375 158.4375 C89.82183532 161.40706503 90.15057359 162.9216452 88.9296875 165.82421875 C85.55844857 170.80080955 83.75122155 172.62757135 77.93359375 174.4375 C76.2496879 177.8109758 76.2496879 177.8109758 74.93359375 181.4375 C72.64389168 184.66004365 71.4023475 185.3274261 67.5234375 186.23828125 C61.75173862 186.85595314 56.62507825 184.99335459 51.18359375 183.25 C49.64251953 182.79270508 49.64251953 182.79270508 48.0703125 182.32617188 C42.84803635 180.70229591 39.72984534 179.46469835 35.93359375 175.4375 C32.37455351 174.37183728 28.63575506 174.4375 24.93359375 174.4375 C22.9598048 176.45559297 22.9598048 176.45559297 21.05859375 179.0625 C20.34960938 179.97902344 19.640625 180.89554688 18.91015625 181.83984375 C18.25789063 182.69707031 17.605625 183.55429688 16.93359375 184.4375 C-2.70643533 209.92412734 -35.43063184 223.79219492 -66.53125 227.89453125 C-69.38149263 228.16965119 -72.20504111 228.34100235 -75.06640625 228.4375 C-75.90429688 228.47746094 -76.7421875 228.51742187 -77.60546875 228.55859375 C-109.29758985 229.37243976 -141.13797967 218.18352641 -165.06640625 197.4375 C-165.87335938 196.76332031 -166.6803125 196.08914062 -167.51171875 195.39453125 C-175.70064441 188.34794788 -182.6824173 180.1391087 -189.06640625 171.4375 C-189.52015625 171.911875 -189.97390625 172.38625 -190.44140625 172.875 C-193.10237468 175.43362349 -194.14408962 175.44243228 -198.00390625 175.6875 C-202.93756662 176.18401854 -206.73639423 177.95864967 -211.16796875 180.09375 C-218.46360495 183.47609347 -225.95346801 186.55652596 -234.06640625 185.4375 C-237.99828489 183.51010851 -240.11411882 181.51098526 -242.37890625 177.875 C-244.436698 174.71172789 -245.92292663 173.94777521 -249.56640625 173.0625 C-252.50112489 172.27860186 -253.77440519 171.78277608 -255.7578125 169.4375 C-258.16478218 165.26816221 -259.3331105 162.30700336 -259.06640625 157.4375 C-253.76929663 155.20713805 -248.7325979 154.70422814 -243.06640625 155.4375 C-238.47240982 157.83890723 -236.22753694 161.98999169 -233.59375 166.31640625 C-231.90145972 168.66656897 -230.62705088 170.0668837 -228.06640625 171.4375 C-225.34375639 171.299394 -225.34375639 171.299394 -222.56640625 170.375 C-221.62796875 170.11589844 -220.68953125 169.85679687 -219.72265625 169.58984375 C-216.78784094 168.31665181 -215.16685562 166.8203211 -213.06640625 164.4375 C-214.6523776 158.05187851 -216.45658657 154.14231842 -222.06640625 150.4375 C-235.79193027 141.17717049 -235.79193027 141.17717049 -239.06640625 133.4375 C-238.73640625 136.0775 -238.40640625 138.7175 -238.06640625 141.4375 C-245.97357037 145.39108206 -259.93808243 142.10959165 -268.4453125 140.77734375 C-272.2292864 140.42221351 -275.33018473 140.80775226 -279.06640625 141.4375 C-281.29183323 141.61717692 -283.5222938 141.743835 -285.75390625 141.8125 C-286.85089844 141.86148438 -287.94789063 141.91046875 -289.078125 141.9609375 C-292.06640625 141.4375 -292.06640625 141.4375 -294.3984375 139.2265625 C-297.10167136 134.70640097 -297.19135188 130.80798715 -297.12890625 125.625 C-297.11988281 124.64917969 -297.11085938 123.67335937 -297.1015625 122.66796875 C-297.08996094 121.93191406 -297.07835937 121.19585937 -297.06640625 120.4375 C-297.21335937 121.38109375 -297.3603125 122.3246875 -297.51171875 123.296875 C-299.35651628 133.85675051 -301.82595346 145.57636594 -311.07885742 152.22070312 C-318.89078572 157.0032422 -328.21012683 157.32966005 -337.09570312 158.16601562 C-346.29837618 159.15851833 -354.73189568 161.60750442 -362.06640625 167.4375 C-362.39640625 168.4275 -362.72640625 169.4175 -363.06640625 170.4375 C-361.67421875 169.07625 -361.67421875 169.07625 -360.25390625 167.6875 C-351.34570516 160.12296923 -340.45981184 159.76677668 -329.29492188 159.3046875 C-318.97118177 158.71948473 -310.25104789 156.1874307 -303.06640625 148.4375 C-301.26427881 146.16425802 -299.66722044 143.86297605 -298.06640625 141.4375 C-293.19140625 143.1875 -293.19140625 143.1875 -292.06640625 145.4375 C-293.00179643 147.79540048 -293.99539035 149.98992228 -295.12890625 152.25 C-295.41701172 152.86681641 -295.70511719 153.48363281 -296.00195312 154.11914062 C-300.46513062 163.11239548 -308.92356912 167.17454735 -318.06640625 170.4375 C-322.07713243 171.05995531 -325.53852418 170.74750506 -329.4921875 169.9453125 C-335.19245052 168.82082966 -340.58501881 167.84734114 -345.6875 171.1171875 C-347.36305969 172.54441931 -349.02200836 173.99137471 -350.6640625 175.45703125 C-354.66958751 178.75914699 -359.13876313 180.62510614 -364.3828125 180.2890625 C-365.14464844 180.21429688 -365.90648437 180.13953125 -366.69140625 180.0625 C-368.92748591 179.85295521 -368.92748591 179.85295521 -371.06640625 180.4375 C-373.27770893 182.54595139 -374.88258286 184.72298615 -376.55859375 187.2734375 C-378.06640625 189.4375 -378.06640625 189.4375 -381.06640625 191.4375 C-383.87890625 191.44921875 -383.87890625 191.44921875 -387.06640625 191.125 C-388.11828125 191.02574219 -389.17015625 190.92648438 -390.25390625 190.82421875 C-393.06640625 190.4375 -393.06640625 190.4375 -396.06640625 189.4375 C-395.79901491 183.42119477 -395.19276534 179.13696452 -391.06640625 174.4375 C-389.39973958 173.77083333 -387.73307292 173.10416667 -386.06640625 172.4375 C-385.23109375 171.07625 -385.23109375 171.07625 -384.37890625 169.6875 C-381.96229537 166.291182 -380.91344735 165.74085806 -377.31640625 164 C-372.07309335 161.16495291 -370.60700382 157.97478815 -368.31640625 152.75 C-366.32169953 148.32488811 -365.19796876 145.94342044 -360.6328125 143.90234375 C-356.87890625 143.1875 -356.87890625 143.1875 -353.3359375 142.859375 C-349.82775913 142.40670682 -347.9796211 141.36239507 -345.06640625 139.4375 C-344.40640625 139.4375 -343.74640625 139.4375 -343.06640625 139.4375 C-343.35515625 138.261875 -343.64390625 137.08625 -343.94140625 135.875 C-345.77412922 127.64083753 -347.2921538 118.88690844 -347.06640625 110.4375 C-348.15953125 110.7675 -349.25265625 111.0975 -350.37890625 111.4375 C-358.99997849 113.5509551 -367.96205787 113.22759327 -376.06640625 109.4375 C-382.56979825 105.19176222 -386.48956281 99.86649787 -388.6484375 92.43359375 C-390.22153605 84.92094552 -388.75474062 78.65764883 -384.6953125 72.28515625 C-379.38414036 65.03801728 -372.54711557 58.42463954 -365.06640625 53.4375 C-365.39640625 52.4475 -365.72640625 51.4575 -366.06640625 50.4375 C-366.77925781 50.41171875 -367.49210937 50.3859375 -368.2265625 50.359375 C-376.57833689 49.86478809 -381.58295914 48.36001945 -387.37890625 42.0625 C-391.48475722 36.91650012 -392.68707267 32.01656402 -392.06640625 25.4375 C-390.546875 23.73046875 -390.546875 23.73046875 -389.06640625 22.4375 C-387.86757813 23.16066406 -387.86757813 23.16066406 -386.64453125 23.8984375 C-381.07012107 27.10437763 -376.42081235 29.70920634 -369.94140625 30.5 C-363.46447874 31.29993925 -358.32605377 33.5711977 -353.06640625 37.4375 C-349.91309671 41.67194424 -349.42647986 45.22667084 -350.06640625 50.4375 C-352.60950371 55.59533146 -355.51988297 59.22648639 -359.87890625 63 C-360.40863037 63.47397217 -360.93835449 63.94794434 -361.48413086 64.4362793 C-364.3066346 66.95001105 -367.19538685 69.36808254 -370.12890625 71.75 C-374.69164382 75.92441947 -376.21178656 79.33950154 -376.50390625 85.4375 C-376.34075645 90.15465731 -375.34636486 92.89859729 -372.06640625 96.4375 C-367.55319435 99.51468993 -363.40314158 100.21914305 -358.06640625 99.4375 C-346.05674841 96.73277536 -336.69254108 89.86426331 -327.39453125 82.078125 C-320.80925701 77.4374955 -314.58833095 75.74771414 -306.69140625 74.5625 C-296.41780779 72.80174384 -289.75518302 69.82770591 -282.00390625 62.8125 C-276.09621889 57.48145941 -270.56423079 55.51399007 -262.69140625 54.75 C-255.98414084 53.89209396 -252.66514606 51.13312394 -247.7421875 46.6875 C-241.1976785 41.18438003 -232.85484835 38.98241502 -224.84375 36.39453125 C-218.16178486 34.09202568 -212.32350741 30.45589961 -206.36328125 26.70703125 C-202.11949389 24.36140048 -199.40215818 24.48770594 -194.5847168 25.01220703 C-188.21611752 25.58425511 -188.21611752 25.58425511 -182.42382812 23.32714844 C-179.29670224 20.28121957 -176.85852208 16.6978936 -174.34765625 13.14306641 C-158.49477495 -7.95987353 -127.38550034 -21.60368741 -102.00390625 -25.8671875 C-65.50283792 -30.83651818 -29.21401966 -22.83212391 0 0 Z M-140.06640625 -4.5625 C-140.67564941 -4.21316406 -141.28489258 -3.86382813 -141.91259766 -3.50390625 C-150.99694427 1.79105319 -158.57691699 8.09243615 -166.06640625 15.4375 C-167.03213683 16.36501589 -167.99827856 17.29210389 -168.96484375 18.21875 C-174.32537049 23.23264978 -174.32537049 23.23264978 -178.06640625 29.4375 C-177.42316406 29.95957031 -176.77992188 30.48164062 -176.1171875 31.01953125 C-169.70422587 36.24321327 -163.3461329 41.52451246 -157.05859375 46.8984375 C-155.35470212 48.34429854 -153.63842233 49.77651235 -151.88671875 51.1640625 C-138.19124705 62.24546076 -125.1302235 80.0422744 -122.06640625 97.4375 C-118.19996356 121.06210398 -118.19996356 121.06210398 -106.78515625 141.4921875 C-104.93791894 143.58292428 -103.5359938 145.75646262 -102.06640625 148.125 C-98.94291742 152.90210056 -95.18824686 157.02415762 -89.91796875 159.41015625 C-88.06640625 160.4375 -88.06640625 160.4375 -87.06640625 163.4375 C-95.05185703 163.07534804 -100.12559357 161.58348566 -105.75390625 155.5625 C-107.96095294 152.58000447 -110.00884511 149.52384171 -112.06640625 146.4375 C-113.68991734 144.64355554 -113.68991734 144.64355554 -115.06640625 143.4375 C-115.72640625 143.7675 -116.38640625 144.0975 -117.06640625 144.4375 C-110.84326193 158.38440728 -110.84326193 158.38440728 -99.06640625 167.4375 C-96.06640625 169.4375 -96.06640625 169.4375 -95.06640625 172.4375 C-106.70225402 171.46505163 -114.89942958 168.97402312 -123.06640625 160.4375 C-126.08041711 161.53350395 -128.52977224 162.73615164 -131.2421875 164.484375 C-135.13639949 166.7306238 -138.76757556 166.94614228 -143.19140625 166.9375 C-150.05810029 167.11055328 -155.78208737 168.33230828 -162.31640625 170.5703125 C-165.87841281 171.69355889 -168.38039165 171.99841526 -172.06640625 171.4375 C-173.94140625 170.4375 -173.94140625 170.4375 -175.06640625 168.4375 C-176.404513 162.60717773 -176.33538655 159.66786848 -173.06640625 154.4375 C-174.38640625 154.1075 -175.70640625 153.7775 -177.06640625 153.4375 C-176.00861491 148.04276414 -175.09620605 146.27248348 -170.53125 142.96875 C-167.58831299 139.89239985 -166.96416904 135.49318277 -166.06640625 131.4375 C-171.90407502 131.22983589 -176.53305847 131.39256713 -182.06640625 133.4375 C-184.73000163 133.87981237 -187.37849996 134.15944073 -190.06640625 134.4375 C-189.62054652 130.31329745 -188.48782112 126.78099681 -187.00390625 122.9375 C-185.49278939 118.93876837 -184.59817787 115.76861248 -185.06640625 111.4375 C-188.21080513 113.00969944 -188.5659465 116.1520084 -189.62890625 119.3125 C-189.84998047 119.95058594 -190.07105469 120.58867187 -190.29882812 121.24609375 C-191.24009027 123.97035094 -192.15495446 126.70314463 -193.06640625 129.4375 C-195.5 130.3515625 -195.5 130.3515625 -198.50390625 131.0625 C-202.39184015 131.95895036 -202.39184015 131.95895036 -206.06640625 133.4375 C-205.54247836 138.80983997 -203.58131679 142.4606182 -201.00390625 147.0625 C-197.30875658 153.96524487 -195.98764593 159.52659097 -197.06640625 167.4375 C-193.11504684 162.91948317 -193.11504684 162.91948317 -191.06640625 157.4375 C-192.15837561 154.04478924 -193.78968908 150.96317438 -195.44140625 147.8125 C-196.30827119 146.11446456 -197.17047161 144.41403741 -198.02734375 142.7109375 C-198.41712402 141.96247559 -198.8069043 141.21401367 -199.20849609 140.44287109 C-200.06640625 138.4375 -200.06640625 138.4375 -200.06640625 135.4375 C-192.99215517 135.50437842 -192.99215517 135.50437842 -190.65625 137.85888672 C-189.45517267 139.81377608 -188.49599949 141.77770049 -187.56640625 143.875 C-187.2209375 144.54982422 -186.87546875 145.22464844 -186.51953125 145.91992188 C-184.600819 149.96672966 -183.92910313 153.00462802 -184.16796875 157.48828125 C-184.36415747 163.09852402 -182.44469977 165.96547048 -178.94140625 170.1875 C-178.40370605 170.86506348 -177.86600586 171.54262695 -177.31201172 172.24072266 C-157.12475547 197.13969263 -129.43655512 215.54919383 -97.06640625 219.4375 C-62.33829133 222.98851845 -29.53745279 214.26777586 -2.22265625 192.12109375 C14.67452157 178.28803772 14.67452157 178.28803772 24.30078125 159.82421875 C24.13969075 158.27826964 23.95224866 156.7348341 23.73828125 155.1953125 C24.04364441 150.88358463 26.08660732 147.59528811 28.18359375 143.875 C28.57949707 143.15900635 28.97540039 142.4430127 29.38330078 141.70532227 C32.36434825 136.64463057 32.36434825 136.64463057 34.94042969 135.70727539 C37.20501214 135.40076343 38.7724042 135.74283193 40.93359375 136.4375 C39.28869951 140.73250162 37.47300769 144.16175549 34.74609375 147.875 C31.6619097 152.3443883 31.18131554 155.07751776 31.93359375 160.4375 C32.59359375 161.0975 33.25359375 161.7575 33.93359375 162.4375 C34.11921875 161.179375 34.30484375 159.92125 34.49609375 158.625 C35.63663111 153.3468928 38.21171712 149.49738713 41.27734375 145.11328125 C43.0435093 142.25992417 44.10562375 139.68603804 44.93359375 136.4375 C43.58871341 133.66862872 42.31886333 132.64575383 39.62109375 131.1875 C33.90817229 127.46745812 30.71136953 121.91978288 28.93359375 115.4375 C28.4534495 112.65582085 28.11803258 109.86774052 27.80859375 107.0625 C27.72222656 106.32644531 27.63585937 105.59039062 27.546875 104.83203125 C27.3367749 103.03450818 27.13438608 101.23608658 26.93359375 99.4375 C24.34707333 102.02402042 24.60632875 103.14600743 24.55859375 106.75 C24.66034015 113.80441727 26.65523133 119.8269229 28.93359375 126.4375 C29.62708115 128.76413267 30.28210008 131.09857903 30.93359375 133.4375 C21.08545169 133.30309608 13.5039287 132.76904558 4.93359375 127.4375 C3.60672753 126.75805299 2.27528078 126.08719079 0.93359375 125.4375 C1.97408361 128.87111654 3.4338742 131.13540979 5.80859375 133.75 C8.52208854 136.78621626 10.28864466 139.7681986 11.98828125 143.453125 C12.94069277 145.45240208 14.02945919 147.29891617 15.18359375 149.1875 C16.93359375 152.4375 16.93359375 152.4375 16.93359375 156.4375 C15.28359375 156.7675 13.63359375 157.0975 11.93359375 157.4375 C11.99546875 158.675 12.05734375 159.9125 12.12109375 161.1875 C12.11121565 163.9780638 11.99020863 165.3212905 10.74609375 167.875 C8.4058615 169.8924416 7.01009697 170.1558483 3.93359375 170.4375 C1.015625 169.4765625 1.015625 169.4765625 -2.25390625 168.0625 C-8.90057019 165.49367318 -14.74107078 164.84973847 -21.84838867 164.97900391 C-25.9864994 164.95960002 -28.22118234 164.68030026 -31.34765625 161.84375 C-33.72387729 159.22102397 -33.72387729 159.22102397 -36.16796875 159.3828125 C-38.60951668 160.73922802 -40.42417005 162.38020006 -42.44140625 164.3125 C-48.31955494 169.65453089 -52.34616555 171.81889448 -60.30859375 171.54296875 C-60.88867188 171.50816406 -61.46875 171.47335938 -62.06640625 171.4375 C-60.76703125 169.9525 -60.76703125 169.9525 -59.44140625 168.4375 C-53.97236091 162.02906569 -48.33904769 155.28532674 -45.06640625 147.4375 C-45.39640625 146.7775 -45.72640625 146.1175 -46.06640625 145.4375 C-46.40373779 145.90647705 -46.74106934 146.3754541 -47.08862305 146.85864258 C-48.63427389 148.99610977 -50.19387093 151.12301164 -51.75390625 153.25 C-52.28435547 153.98798828 -52.81480469 154.72597656 -53.36132812 155.48632812 C-58.59177221 162.57791183 -58.59177221 162.57791183 -63.06640625 164.4375 C-65.5234375 164.73046875 -65.5234375 164.73046875 -67.87890625 164.625 C-68.66910156 164.59792969 -69.45929688 164.57085937 -70.2734375 164.54296875 C-70.86511719 164.50816406 -71.45679688 164.47335938 -72.06640625 164.4375 C-72.06640625 163.4475 -72.06640625 162.4575 -72.06640625 161.4375 C-70.34375 159.96484375 -70.34375 159.96484375 -68.00390625 158.375 C-53.92774689 147.78478606 -49.56084443 129.87403957 -45.56640625 113.5625 C-43.40843632 104.7938894 -41.13956261 96.17032354 -37.984375 87.69921875 C-37.74243408 87.04676178 -37.50049316 86.39430481 -37.2512207 85.72207642 C-29.35867765 65.22550914 -8.33036979 52.01150548 8.89282227 39.85205078 C12.53202198 37.26580521 15.91018556 34.75685027 18.93359375 31.4375 C4.54887412 12.98437482 -11.57657123 -1.01020913 -33.06640625 -10.5625 C-34.13246094 -11.04460938 -35.19851563 -11.52671875 -36.296875 -12.0234375 C-69.72983461 -26.00680464 -108.94065629 -22.5796317 -140.06640625 -4.5625 Z M26.90234375 55.3828125 C21.33085149 61.19750482 19.13855139 66.38825444 18.93359375 74.4375 C20.38738667 72.511862 21.83017274 70.58385639 23.22265625 68.61328125 C26.75981342 63.67987783 30.73709856 59.55634453 35.17578125 55.41796875 C37.2655009 53.50489271 37.2655009 53.50489271 36.93359375 50.4375 C31.78546509 50.4375 30.53504761 52.00765108 26.90234375 55.3828125 Z M-192.06640625 59.4375 C-191.42133152 63.13996019 -190.39525973 66.48733217 -189.06640625 70 C-187.88646633 73.12770839 -186.80338381 76.17483892 -186.06640625 79.4375 C-185.40640625 79.4375 -184.74640625 79.4375 -184.06640625 79.4375 C-183.49191858 69.46894207 -183.49191858 69.46894207 -187.06640625 60.4375 C-189.64373539 59.38582473 -189.64373539 59.38582473 -192.06640625 59.4375 Z M-142.06640625 103.4375 C-142.93524331 105.01283086 -143.78599693 106.59814509 -144.62890625 108.1875 C-145.10457031 109.06921875 -145.58023438 109.9509375 -146.0703125 110.859375 C-147.14638811 113.64451188 -147.13169373 114.70730214 -146.06640625 117.4375 C-145.23109375 116.4165625 -145.23109375 116.4165625 -144.37890625 115.375 C-142.06640625 113.4375 -142.06640625 113.4375 -139.56640625 113.375 C-136.17366018 114.81691708 -135.00344015 116.2981692 -133.06640625 119.4375 C-132.19428956 122.09819497 -131.62644303 124.68398584 -131.06640625 127.4375 C-130.40640625 127.4375 -129.74640625 127.4375 -129.06640625 127.4375 C-127.90972681 122.73367029 -127.33160033 119.97748761 -129.453125 115.53125 C-131.23520776 112.75164921 -133.08622474 110.07912869 -135.06640625 107.4375 C-135.55625 106.67050781 -136.04609375 105.90351563 -136.55078125 105.11328125 C-137.0509375 104.56027344 -137.55109375 104.00726563 -138.06640625 103.4375 C-139.38640625 103.4375 -140.70640625 103.4375 -142.06640625 103.4375 Z M-19.81640625 108.140625 C-20.90540292 109.31770229 -21.98849031 110.50026711 -23.06640625 111.6875 C-23.61296875 112.27402344 -24.15953125 112.86054688 -24.72265625 113.46484375 C-28.51301542 117.59893647 -31.38672944 120.82780438 -31.19140625 126.6875 C-31.15015625 127.925 -31.10890625 129.1625 -31.06640625 130.4375 C-30.40640625 130.4375 -29.74640625 130.4375 -29.06640625 130.4375 C-28.87046875 129.85742188 -28.67453125 129.27734375 -28.47265625 128.6796875 C-26.158615 122.63525217 -23.1426914 118.16708122 -17.06640625 115.4375 C-14.87890625 115.6640625 -14.87890625 115.6640625 -13.06640625 116.4375 C-12.73640625 117.0975 -12.40640625 117.7575 -12.06640625 118.4375 C-11.07640625 118.1075 -10.08640625 117.7775 -9.06640625 117.4375 C-10.38191749 112.83321066 -12.15837111 109.25429612 -15.06640625 105.4375 C-17.47136737 105.20383247 -17.47136737 105.20383247 -19.81640625 108.140625 Z M-147.37890625 150.8125 C-149.24665878 153.19778917 -149.24665878 153.19778917 -149.06640625 155.4375 C-144.89936681 155.79767076 -144.89936681 155.79767076 -141.19140625 154.1875 C-139.70590119 152.22345012 -139.70590119 152.22345012 -140.06640625 148.4375 C-143.77991675 147.92173465 -144.69021417 148.05114057 -147.37890625 150.8125 Z M-19.06640625 148.4375 C-18.79984053 151.37193402 -18.79984053 151.37193402 -18.06640625 154.4375 C-15.25130632 156.7148501 -15.25130632 156.7148501 -12.06640625 156.4375 C-11.7321489 154.06375139 -11.7321489 154.06375139 -12.06640625 151.4375 C-13.79678697 149.53548258 -13.79678697 149.53548258 -16.06640625 148.4375 C-17.05640625 148.4375 -18.04640625 148.4375 -19.06640625 148.4375 Z M192.93359375 165.4375 C193.26359375 166.0975 193.59359375 166.7575 193.93359375 167.4375 C194.59359375 167.1075 195.25359375 166.7775 195.93359375 166.4375 C194.94359375 166.1075 193.95359375 165.7775 192.93359375 165.4375 Z " fill="#C5C7C8" transform="translate(410.06640625,26.5625)"/>
<path d="M0 0 C1.93166016 0.01740234 1.93166016 0.01740234 3.90234375 0.03515625 C5.19269531 0.04417969 6.48304688 0.05320313 7.8125 0.0625 C8.81152344 0.07410156 9.81054688 0.08570313 10.83984375 0.09765625 C11.51652373 1.34226408 12.18079094 2.59362521 12.83984375 3.84765625 C13.39671875 4.89179688 13.39671875 4.89179688 13.96484375 5.95703125 C14.83984375 8.09765625 14.83984375 8.09765625 14.83984375 12.09765625 C7.04775721 15.76452051 7.04775721 15.76452051 2.83984375 15.09765625 C1.07421875 13.05078125 1.07421875 13.05078125 -0.41015625 10.34765625 C-0.9103125 9.4659375 -1.41046875 8.58421875 -1.92578125 7.67578125 C-2.99695578 5.43851799 -3.78561593 3.54318424 -4.16015625 1.09765625 C-3.16015625 0.09765625 -3.16015625 0.09765625 0 0 Z " fill="#B6B8B9" transform="translate(178.16015625,179.90234375)"/>
<path d="M0 0 C2.20665404 3.30998105 2.78262095 5.82021436 3.625 9.6875 C3.88539063 10.86699219 4.14578125 12.04648438 4.4140625 13.26171875 C4.60742188 14.16535156 4.80078125 15.06898438 5 16 C1.61272328 18.12345246 -1.01875869 19.43125124 -5 20 C-7.71758299 13.78838174 -9.96930082 7.72844447 -8 1 C-5.21136993 -0.39431504 -3.07921132 -0.25660094 0 0 Z " fill="#AFB0B1" transform="translate(651,198)"/>
<path d="M0 0 C2.71311438 0.94959003 3.79590682 1.58752357 5.5 3.875 C5.42578125 6.14453125 5.42578125 6.14453125 4.8125 8.6875 C4.50119141 10.00814453 4.50119141 10.00814453 4.18359375 11.35546875 C3.40095477 14.24005243 2.53342102 17.07000009 1.5 19.875 C-2.21888239 19.36787967 -5.23454239 18.75891785 -8.5 16.875 C-8.27957031 16.04162109 -8.27957031 16.04162109 -8.0546875 15.19140625 C-7.26560576 11.89615644 -6.74815889 8.55705149 -6.1953125 5.21484375 C-5.12641821 1.61783431 -3.86940001 -0.19347 0 0 Z " fill="#AFB0B1" transform="translate(8.5,197.125)"/>
<path d="M0 0 C-0.80357143 8.03571429 -0.80357143 8.03571429 -3 12 C-10.90985915 12.6084507 -10.90985915 12.6084507 -14.6875 10.5 C-16.2217182 7.57767962 -16.00452432 6.85621689 -15.25 3.75 C-14.8375 2.5125 -14.425 1.275 -14 0 C-12.2300132 -0.19532961 -10.45895721 -0.38098882 -8.6875 -0.5625 C-7.70136719 -0.66691406 -6.71523438 -0.77132812 -5.69921875 -0.87890625 C-3 -1 -3 -1 0 0 Z " fill="#B2B4B5" transform="translate(479,182)"/>
<path d="M0 0 C1.46022163 0.95545366 2.91811468 1.91446678 4.375 2.875 C5.18710937 3.40867188 5.99921875 3.94234375 6.8359375 4.4921875 C9 6 9 6 11 8 C10.76668847 10.41088579 10.15677244 11.78051858 8.75 13.75 C6.33101318 15.47784773 4.92763902 15.34315057 2 15 C-0.0546875 13.42578125 -0.0546875 13.42578125 -1.875 11.3125 C-2.49117187 10.62800781 -3.10734375 9.94351563 -3.7421875 9.23828125 C-5 7 -5 7 -4.9453125 4.35546875 C-4 2 -4 2 -1.9375 0.6875 C-1.298125 0.460625 -0.65875 0.23375 0 0 Z " fill="#AEAFB0" transform="translate(633,184)"/>
<path d="M0 0 C-0.47620289 4.37653129 -1.66899889 6.06538005 -5.0625 8.8125 C-5.79597656 9.41707031 -6.52945312 10.02164063 -7.28515625 10.64453125 C-7.85105469 11.09183594 -8.41695312 11.53914062 -9 12 C-13.875 10.125 -13.875 10.125 -15 9 C-15.04063832 7.33382885 -15.042721 5.66611905 -15 4 C-13.06767179 3.13419713 -11.12892806 2.28270059 -9.1875 1.4375 C-8.10855469 0.96183594 -7.02960937 0.48617187 -5.91796875 -0.00390625 C-3 -1 -3 -1 0 0 Z " fill="#ACAEAF" transform="translate(28,187)"/>
<path d="M0 0 C0.66 0.33 1.32 0.66 2 1 C-3.94 6.94 -9.88 12.88 -16 19 C-16 13.49581073 -10.69222469 9.76817235 -7 6 C-4.72454022 3.90179524 -2.40856363 1.94734932 0 0 Z " fill="#7F8181" transform="translate(42,82)"/>
<path d="M0 0 C0.66 0.33 1.32 0.66 2 1 C-3.28 6.28 -8.56 11.56 -14 17 C-14.66 16.67 -15.32 16.34 -16 16 C-11.1163329 10.09563077 -5.8280757 4.96906227 0 0 Z " fill="#787979" transform="translate(248,28)"/>
<path d="M0 0 C0.66 0.33 1.32 0.66 2 1 C0.71451591 2.33929505 -0.57858155 3.67128643 -1.875 5 C-2.59429687 5.7425 -3.31359375 6.485 -4.0546875 7.25 C-6 9 -6 9 -8 9 C-6.4169423 4.7257442 -3.49431596 2.73468206 0 0 Z " fill="#858787" transform="translate(391,142)"/>
<path d="M0 0 C0.66 0.33 1.32 0.66 2 1 C-0.64 3.64 -3.28 6.28 -6 9 C-6 6 -6 6 -3.5625 3.375 C-2.716875 2.59125 -1.87125 1.8075 -1 1 C-0.67 0.67 -0.34 0.34 0 0 Z " fill="#7C7D7E" transform="translate(610,60)"/>
<path d="M0 0 C2.31 0 4.62 0 7 0 C7 0.33 7 0.66 7 1 C5.35 1.33 3.7 1.66 2 2 C1.67 3.32 1.34 4.64 1 6 C0.34 5.34 -0.32 4.68 -1 4 C-0.625 1.875 -0.625 1.875 0 0 Z " fill="#4E4F4F" transform="translate(175,180)"/>
<path d="M0 0 C1.98 0.495 1.98 0.495 4 1 C4.33 2.65 4.66 4.3 5 6 C4.34 5.67 3.68 5.34 3 5 C3 4.01 3 3.02 3 2 C1.68 2.99 0.36 3.98 -1 5 C-0.67 3.35 -0.34 1.7 0 0 Z " fill="#535454" transform="translate(545,166)"/>
<path d="M0 0 C1.67542976 0.28604898 3.34385343 0.61781233 5 1 C2.33333333 2.33333333 -0.33333333 3.66666667 -3 5 C-1.125 1.125 -1.125 1.125 0 0 Z " fill="#787A7B" transform="translate(444,161)"/>
</svg>
